<mxfile host="app.diagrams.net" modified="2023-03-22T13:16:14.142Z" agent="5.0 (Windows NT 10.0; Win64; x64) AppleWebKit/537.36 (KHTML, like Gecko) Chrome/111.0.0.0 Safari/537.36" etag="dsG4FkPNZhqQmygUQY1A" version="21.0.10" type="github">
  <diagram name="Page-1" id="yaiSUdIja8jFNTYcKJVp">
    <mxGraphModel dx="1560" dy="2082" grid="0" gridSize="10" guides="1" tooltips="1" connect="1" arrows="1" fold="1" page="0" pageScale="1" pageWidth="850" pageHeight="1100" math="0" shadow="0">
      <root>
        <mxCell id="0" />
        <mxCell id="1" parent="0" />
        <mxCell id="zgJvrpXNEwTxWeU-P69i-1" value="User" style="shape=umlActor;verticalLabelPosition=bottom;verticalAlign=top;html=1;outlineConnect=0;" parent="1" vertex="1">
          <mxGeometry x="90" y="310" width="30" height="60" as="geometry" />
        </mxCell>
        <mxCell id="zgJvrpXNEwTxWeU-P69i-2" value="" style="rounded=0;whiteSpace=wrap;html=1;" parent="1" vertex="1">
          <mxGeometry x="270" y="310" width="20" height="180" as="geometry" />
        </mxCell>
        <mxCell id="zgJvrpXNEwTxWeU-P69i-3" value="" style="endArrow=classic;html=1;rounded=0;" parent="1" edge="1">
          <mxGeometry width="50" height="50" relative="1" as="geometry">
            <mxPoint x="120" y="350" as="sourcePoint" />
            <mxPoint x="270" y="350" as="targetPoint" />
            <Array as="points">
              <mxPoint x="180" y="350" />
              <mxPoint x="220" y="350" />
            </Array>
          </mxGeometry>
        </mxCell>
        <mxCell id="zgJvrpXNEwTxWeU-P69i-4" value="Access website" style="text;html=1;strokeColor=none;fillColor=none;align=center;verticalAlign=middle;whiteSpace=wrap;rounded=0;" parent="1" vertex="1">
          <mxGeometry x="150" y="325" width="90" height="30" as="geometry" />
        </mxCell>
        <mxCell id="zgJvrpXNEwTxWeU-P69i-5" value="homePage" style="rounded=0;whiteSpace=wrap;html=1;" parent="1" vertex="1">
          <mxGeometry x="230" y="230" width="100" height="50" as="geometry" />
        </mxCell>
        <mxCell id="zgJvrpXNEwTxWeU-P69i-6" value="" style="endArrow=none;dashed=1;html=1;rounded=0;entryX=0.5;entryY=1;entryDx=0;entryDy=0;exitX=0.5;exitY=0;exitDx=0;exitDy=0;" parent="1" source="zgJvrpXNEwTxWeU-P69i-2" target="zgJvrpXNEwTxWeU-P69i-5" edge="1">
          <mxGeometry width="50" height="50" relative="1" as="geometry">
            <mxPoint x="210" y="350" as="sourcePoint" />
            <mxPoint x="260" y="300" as="targetPoint" />
          </mxGeometry>
        </mxCell>
        <mxCell id="zgJvrpXNEwTxWeU-P69i-7" value="" style="rounded=0;whiteSpace=wrap;html=1;" parent="1" vertex="1">
          <mxGeometry x="690" y="310" width="20" height="110" as="geometry" />
        </mxCell>
        <mxCell id="zgJvrpXNEwTxWeU-P69i-8" value="" style="rounded=0;whiteSpace=wrap;html=1;" parent="1" vertex="1">
          <mxGeometry x="646" y="230" width="100" height="50" as="geometry" />
        </mxCell>
        <mxCell id="zgJvrpXNEwTxWeU-P69i-10" value="" style="endArrow=none;dashed=1;html=1;rounded=0;entryX=0.5;entryY=1;entryDx=0;entryDy=0;exitX=0.5;exitY=0;exitDx=0;exitDy=0;" parent="1" source="zgJvrpXNEwTxWeU-P69i-7" edge="1">
          <mxGeometry width="50" height="50" relative="1" as="geometry">
            <mxPoint x="670" y="350" as="sourcePoint" />
            <mxPoint x="700" y="280" as="targetPoint" />
          </mxGeometry>
        </mxCell>
        <mxCell id="zgJvrpXNEwTxWeU-P69i-11" value="login.jsp" style="text;html=1;strokeColor=none;fillColor=none;align=center;verticalAlign=middle;whiteSpace=wrap;rounded=0;" parent="1" vertex="1">
          <mxGeometry x="670" y="240" width="60" height="30" as="geometry" />
        </mxCell>
        <mxCell id="zgJvrpXNEwTxWeU-P69i-12" value="" style="endArrow=classic;html=1;rounded=0;exitX=1;exitY=0.25;exitDx=0;exitDy=0;" parent="1" source="zgJvrpXNEwTxWeU-P69i-2" edge="1">
          <mxGeometry width="50" height="50" relative="1" as="geometry">
            <mxPoint x="410" y="350" as="sourcePoint" />
            <mxPoint x="430" y="355" as="targetPoint" />
          </mxGeometry>
        </mxCell>
        <mxCell id="zgJvrpXNEwTxWeU-P69i-13" value="UserName, password" style="text;html=1;strokeColor=none;fillColor=none;align=center;verticalAlign=middle;whiteSpace=wrap;rounded=0;" parent="1" vertex="1">
          <mxGeometry x="490" y="375" width="170" height="30" as="geometry" />
        </mxCell>
        <mxCell id="nSZftVaQ9IzjvLu4ULw2-5" style="edgeStyle=orthogonalEdgeStyle;rounded=0;orthogonalLoop=1;jettySize=auto;html=1;exitX=0.75;exitY=1;exitDx=0;exitDy=0;entryX=0.25;entryY=0;entryDx=0;entryDy=0;" parent="1" source="zgJvrpXNEwTxWeU-P69i-18" target="zgJvrpXNEwTxWeU-P69i-44" edge="1">
          <mxGeometry relative="1" as="geometry">
            <mxPoint x="525" y="540" as="targetPoint" />
            <Array as="points">
              <mxPoint x="440" y="420" />
            </Array>
          </mxGeometry>
        </mxCell>
        <mxCell id="OS-VpMHr_oTkPdKjHbIb-1" style="edgeStyle=orthogonalEdgeStyle;rounded=0;orthogonalLoop=1;jettySize=auto;html=1;exitX=1;exitY=0.25;exitDx=0;exitDy=0;entryX=0;entryY=0.25;entryDx=0;entryDy=0;" edge="1" parent="1" source="zgJvrpXNEwTxWeU-P69i-18" target="zgJvrpXNEwTxWeU-P69i-7">
          <mxGeometry relative="1" as="geometry" />
        </mxCell>
        <mxCell id="OS-VpMHr_oTkPdKjHbIb-6" style="edgeStyle=orthogonalEdgeStyle;rounded=0;orthogonalLoop=1;jettySize=auto;html=1;exitX=1;exitY=0.75;exitDx=0;exitDy=0;entryX=0;entryY=0.25;entryDx=0;entryDy=0;" edge="1" parent="1" source="zgJvrpXNEwTxWeU-P69i-18" target="zgJvrpXNEwTxWeU-P69i-26">
          <mxGeometry relative="1" as="geometry" />
        </mxCell>
        <mxCell id="zgJvrpXNEwTxWeU-P69i-18" value="" style="rounded=0;whiteSpace=wrap;html=1;" parent="1" vertex="1">
          <mxGeometry x="430" y="310" width="20" height="110" as="geometry" />
        </mxCell>
        <mxCell id="zgJvrpXNEwTxWeU-P69i-19" value="LoginController" style="rounded=0;whiteSpace=wrap;html=1;" parent="1" vertex="1">
          <mxGeometry x="390" y="230" width="100" height="50" as="geometry" />
        </mxCell>
        <mxCell id="zgJvrpXNEwTxWeU-P69i-20" value="" style="endArrow=none;dashed=1;html=1;rounded=0;exitX=0.5;exitY=0;exitDx=0;exitDy=0;" parent="1" source="zgJvrpXNEwTxWeU-P69i-18" target="zgJvrpXNEwTxWeU-P69i-19" edge="1">
          <mxGeometry width="50" height="50" relative="1" as="geometry">
            <mxPoint x="330" y="350" as="sourcePoint" />
            <mxPoint x="380" y="300" as="targetPoint" />
          </mxGeometry>
        </mxCell>
        <mxCell id="zgJvrpXNEwTxWeU-P69i-26" value="" style="rounded=0;whiteSpace=wrap;html=1;" parent="1" vertex="1">
          <mxGeometry x="555" y="415" width="20" height="100" as="geometry" />
        </mxCell>
        <mxCell id="zgJvrpXNEwTxWeU-P69i-28" value="AccountDBContext" style="rounded=0;whiteSpace=wrap;html=1;" parent="1" vertex="1">
          <mxGeometry x="505" y="550" width="110" height="50" as="geometry" />
        </mxCell>
        <mxCell id="zgJvrpXNEwTxWeU-P69i-44" value="" style="rounded=0;whiteSpace=wrap;html=1;" parent="1" vertex="1">
          <mxGeometry x="435" y="565" width="20" height="50" as="geometry" />
        </mxCell>
        <mxCell id="zgJvrpXNEwTxWeU-P69i-46" value="Session" style="rounded=0;whiteSpace=wrap;html=1;" parent="1" vertex="1">
          <mxGeometry x="410" y="635" width="70" height="40" as="geometry" />
        </mxCell>
        <mxCell id="zgJvrpXNEwTxWeU-P69i-51" value="" style="endArrow=none;dashed=1;html=1;rounded=0;entryX=0.5;entryY=1;entryDx=0;entryDy=0;exitX=0.5;exitY=0;exitDx=0;exitDy=0;" parent="1" source="zgJvrpXNEwTxWeU-P69i-46" target="zgJvrpXNEwTxWeU-P69i-44" edge="1">
          <mxGeometry width="50" height="50" relative="1" as="geometry">
            <mxPoint x="280" y="605" as="sourcePoint" />
            <mxPoint x="330" y="555" as="targetPoint" />
          </mxGeometry>
        </mxCell>
        <mxCell id="zgJvrpXNEwTxWeU-P69i-52" value="Account" style="text;html=1;strokeColor=none;fillColor=none;align=center;verticalAlign=middle;whiteSpace=wrap;rounded=0;" parent="1" vertex="1">
          <mxGeometry x="380" y="488.75" width="60" height="30" as="geometry" />
        </mxCell>
        <mxCell id="zgJvrpXNEwTxWeU-P69i-60" value="User" style="shape=umlActor;verticalLabelPosition=bottom;verticalAlign=top;html=1;outlineConnect=0;" parent="1" vertex="1">
          <mxGeometry x="50" y="1390" width="30" height="60" as="geometry" />
        </mxCell>
        <mxCell id="zgJvrpXNEwTxWeU-P69i-61" value="" style="rounded=0;whiteSpace=wrap;html=1;" parent="1" vertex="1">
          <mxGeometry x="230" y="1390" width="20" height="180" as="geometry" />
        </mxCell>
        <mxCell id="zgJvrpXNEwTxWeU-P69i-62" value="" style="endArrow=classic;html=1;rounded=0;" parent="1" edge="1">
          <mxGeometry width="50" height="50" relative="1" as="geometry">
            <mxPoint x="80" y="1430" as="sourcePoint" />
            <mxPoint x="230" y="1430" as="targetPoint" />
            <Array as="points">
              <mxPoint x="140" y="1430" />
              <mxPoint x="180" y="1430" />
            </Array>
          </mxGeometry>
        </mxCell>
        <mxCell id="zgJvrpXNEwTxWeU-P69i-63" value="Access website" style="text;html=1;strokeColor=none;fillColor=none;align=center;verticalAlign=middle;whiteSpace=wrap;rounded=0;" parent="1" vertex="1">
          <mxGeometry x="110" y="1405" width="90" height="30" as="geometry" />
        </mxCell>
        <mxCell id="zgJvrpXNEwTxWeU-P69i-64" value="homePage" style="rounded=0;whiteSpace=wrap;html=1;" parent="1" vertex="1">
          <mxGeometry x="190" y="1310" width="100" height="50" as="geometry" />
        </mxCell>
        <mxCell id="zgJvrpXNEwTxWeU-P69i-65" value="" style="endArrow=none;dashed=1;html=1;rounded=0;entryX=0.5;entryY=1;entryDx=0;entryDy=0;exitX=0.5;exitY=0;exitDx=0;exitDy=0;" parent="1" source="zgJvrpXNEwTxWeU-P69i-61" target="zgJvrpXNEwTxWeU-P69i-64" edge="1">
          <mxGeometry width="50" height="50" relative="1" as="geometry">
            <mxPoint x="170" y="1430" as="sourcePoint" />
            <mxPoint x="220" y="1380" as="targetPoint" />
          </mxGeometry>
        </mxCell>
        <mxCell id="zgJvrpXNEwTxWeU-P69i-71" value="" style="endArrow=classic;html=1;rounded=0;exitX=1;exitY=0.25;exitDx=0;exitDy=0;" parent="1" source="zgJvrpXNEwTxWeU-P69i-61" edge="1">
          <mxGeometry width="50" height="50" relative="1" as="geometry">
            <mxPoint x="370" y="1430" as="sourcePoint" />
            <mxPoint x="390" y="1435" as="targetPoint" />
            <Array as="points">
              <mxPoint x="320" y="1435" />
            </Array>
          </mxGeometry>
        </mxCell>
        <mxCell id="zgJvrpXNEwTxWeU-P69i-109" style="edgeStyle=orthogonalEdgeStyle;rounded=0;orthogonalLoop=1;jettySize=auto;html=1;exitX=1;exitY=0.25;exitDx=0;exitDy=0;entryX=0;entryY=0.25;entryDx=0;entryDy=0;" parent="1" source="zgJvrpXNEwTxWeU-P69i-74" target="zgJvrpXNEwTxWeU-P69i-102" edge="1">
          <mxGeometry relative="1" as="geometry" />
        </mxCell>
        <mxCell id="OS-VpMHr_oTkPdKjHbIb-34" style="edgeStyle=orthogonalEdgeStyle;rounded=0;orthogonalLoop=1;jettySize=auto;html=1;exitX=0;exitY=0.75;exitDx=0;exitDy=0;entryX=0;entryY=0.25;entryDx=0;entryDy=0;" edge="1" parent="1" source="zgJvrpXNEwTxWeU-P69i-74" target="OS-VpMHr_oTkPdKjHbIb-24">
          <mxGeometry relative="1" as="geometry" />
        </mxCell>
        <mxCell id="OS-VpMHr_oTkPdKjHbIb-47" style="edgeStyle=orthogonalEdgeStyle;rounded=0;orthogonalLoop=1;jettySize=auto;html=1;exitX=1;exitY=0.75;exitDx=0;exitDy=0;entryX=0;entryY=0.25;entryDx=0;entryDy=0;" edge="1" parent="1" source="zgJvrpXNEwTxWeU-P69i-74" target="zgJvrpXNEwTxWeU-P69i-170">
          <mxGeometry relative="1" as="geometry">
            <Array as="points">
              <mxPoint x="410" y="1490" />
              <mxPoint x="492" y="1490" />
              <mxPoint x="492" y="1648" />
            </Array>
          </mxGeometry>
        </mxCell>
        <mxCell id="zgJvrpXNEwTxWeU-P69i-74" value="" style="rounded=0;whiteSpace=wrap;html=1;" parent="1" vertex="1">
          <mxGeometry x="390" y="1390" width="20" height="110" as="geometry" />
        </mxCell>
        <mxCell id="zgJvrpXNEwTxWeU-P69i-75" value="SignupController" style="rounded=0;whiteSpace=wrap;html=1;" parent="1" vertex="1">
          <mxGeometry x="350" y="1310" width="100" height="50" as="geometry" />
        </mxCell>
        <mxCell id="zgJvrpXNEwTxWeU-P69i-76" value="" style="endArrow=none;dashed=1;html=1;rounded=0;exitX=0.5;exitY=0;exitDx=0;exitDy=0;" parent="1" source="zgJvrpXNEwTxWeU-P69i-74" target="zgJvrpXNEwTxWeU-P69i-75" edge="1">
          <mxGeometry width="50" height="50" relative="1" as="geometry">
            <mxPoint x="200" y="1430" as="sourcePoint" />
            <mxPoint x="250" y="1380" as="targetPoint" />
          </mxGeometry>
        </mxCell>
        <mxCell id="zgJvrpXNEwTxWeU-P69i-81" value="&lt;span style=&quot;color: rgb(0, 0, 0); font-family: Helvetica; font-size: 12px; font-style: normal; font-variant-ligatures: normal; font-variant-caps: normal; font-weight: 400; letter-spacing: normal; orphans: 2; text-align: center; text-indent: 0px; text-transform: none; widows: 2; word-spacing: 0px; -webkit-text-stroke-width: 0px; background-color: rgb(251, 251, 251); text-decoration-thickness: initial; text-decoration-style: initial; text-decoration-color: initial; float: none; display: inline !important;&quot;&gt;Validate&lt;/span&gt;&lt;br style=&quot;border-color: var(--border-color); color: rgb(0, 0, 0); font-family: Helvetica; font-size: 12px; font-style: normal; font-variant-ligatures: normal; font-variant-caps: normal; font-weight: 400; letter-spacing: normal; orphans: 2; text-align: center; text-indent: 0px; text-transform: none; widows: 2; word-spacing: 0px; -webkit-text-stroke-width: 0px; background-color: rgb(251, 251, 251); text-decoration-thickness: initial; text-decoration-style: initial; text-decoration-color: initial;&quot;&gt;&lt;span style=&quot;color: rgb(0, 0, 0); font-family: Helvetica; font-size: 12px; font-style: normal; font-variant-ligatures: normal; font-variant-caps: normal; font-weight: 400; letter-spacing: normal; orphans: 2; text-align: center; text-indent: 0px; text-transform: none; widows: 2; word-spacing: 0px; -webkit-text-stroke-width: 0px; background-color: rgb(251, 251, 251); text-decoration-thickness: initial; text-decoration-style: initial; text-decoration-color: initial; float: none; display: inline !important;&quot;&gt;input&lt;/span&gt;" style="text;whiteSpace=wrap;html=1;" parent="1" vertex="1">
          <mxGeometry x="644" y="1420" width="50" height="50" as="geometry" />
        </mxCell>
        <mxCell id="zgJvrpXNEwTxWeU-P69i-99" value="fillin4.jsp" style="rounded=0;whiteSpace=wrap;html=1;" parent="1" vertex="1">
          <mxGeometry x="554" y="1310" width="100" height="50" as="geometry" />
        </mxCell>
        <mxCell id="zgJvrpXNEwTxWeU-P69i-100" value="" style="endArrow=none;dashed=1;html=1;rounded=0;entryX=0.5;entryY=1;entryDx=0;entryDy=0;exitX=0.25;exitY=0;exitDx=0;exitDy=0;" parent="1" target="zgJvrpXNEwTxWeU-P69i-99" edge="1">
          <mxGeometry width="50" height="50" relative="1" as="geometry">
            <mxPoint x="602.75" y="1390" as="sourcePoint" />
            <mxPoint x="444" y="1480" as="targetPoint" />
          </mxGeometry>
        </mxCell>
        <mxCell id="zgJvrpXNEwTxWeU-P69i-101" style="edgeStyle=orthogonalEdgeStyle;rounded=0;orthogonalLoop=1;jettySize=auto;html=1;entryX=1;entryY=0.75;entryDx=0;entryDy=0;exitX=1;exitY=0.25;exitDx=0;exitDy=0;" parent="1" source="zgJvrpXNEwTxWeU-P69i-102" target="zgJvrpXNEwTxWeU-P69i-102" edge="1">
          <mxGeometry relative="1" as="geometry">
            <mxPoint x="724" y="1445" as="targetPoint" />
          </mxGeometry>
        </mxCell>
        <mxCell id="OS-VpMHr_oTkPdKjHbIb-41" style="edgeStyle=orthogonalEdgeStyle;rounded=0;orthogonalLoop=1;jettySize=auto;html=1;exitX=1;exitY=1;exitDx=0;exitDy=0;entryX=0;entryY=1;entryDx=0;entryDy=0;" edge="1" parent="1" source="zgJvrpXNEwTxWeU-P69i-102" target="zgJvrpXNEwTxWeU-P69i-110">
          <mxGeometry relative="1" as="geometry" />
        </mxCell>
        <mxCell id="zgJvrpXNEwTxWeU-P69i-102" value="" style="rounded=0;whiteSpace=wrap;html=1;" parent="1" vertex="1">
          <mxGeometry x="594" y="1390" width="20" height="110" as="geometry" />
        </mxCell>
        <mxCell id="zgJvrpXNEwTxWeU-P69i-131" style="edgeStyle=orthogonalEdgeStyle;rounded=0;orthogonalLoop=1;jettySize=auto;html=1;exitX=0.75;exitY=1;exitDx=0;exitDy=0;entryX=0.5;entryY=1;entryDx=0;entryDy=0;" parent="1" source="zgJvrpXNEwTxWeU-P69i-110" target="zgJvrpXNEwTxWeU-P69i-128" edge="1">
          <mxGeometry relative="1" as="geometry">
            <Array as="points">
              <mxPoint x="944" y="1500" />
            </Array>
          </mxGeometry>
        </mxCell>
        <mxCell id="kSUuMkcsXtGZUpF6bscl-50" style="edgeStyle=orthogonalEdgeStyle;rounded=0;orthogonalLoop=1;jettySize=auto;html=1;exitX=0.75;exitY=1;exitDx=0;exitDy=0;entryX=0.5;entryY=0;entryDx=0;entryDy=0;" parent="1" source="zgJvrpXNEwTxWeU-P69i-110" target="kSUuMkcsXtGZUpF6bscl-47" edge="1">
          <mxGeometry relative="1" as="geometry" />
        </mxCell>
        <mxCell id="zgJvrpXNEwTxWeU-P69i-110" value="" style="rounded=0;whiteSpace=wrap;html=1;" parent="1" vertex="1">
          <mxGeometry x="774" y="1390" width="20" height="110" as="geometry" />
        </mxCell>
        <mxCell id="zgJvrpXNEwTxWeU-P69i-111" value="Fillin4Controller" style="rounded=0;whiteSpace=wrap;html=1;" parent="1" vertex="1">
          <mxGeometry x="734" y="1310" width="100" height="50" as="geometry" />
        </mxCell>
        <mxCell id="zgJvrpXNEwTxWeU-P69i-112" value="" style="endArrow=none;dashed=1;html=1;rounded=0;exitX=0.5;exitY=0;exitDx=0;exitDy=0;" parent="1" source="zgJvrpXNEwTxWeU-P69i-110" target="zgJvrpXNEwTxWeU-P69i-111" edge="1">
          <mxGeometry width="50" height="50" relative="1" as="geometry">
            <mxPoint x="584" y="1430" as="sourcePoint" />
            <mxPoint x="634" y="1380" as="targetPoint" />
          </mxGeometry>
        </mxCell>
        <mxCell id="zgJvrpXNEwTxWeU-P69i-114" value="User information" style="text;html=1;strokeColor=none;fillColor=none;align=center;verticalAlign=middle;whiteSpace=wrap;rounded=0;" parent="1" vertex="1">
          <mxGeometry x="641" y="1520" width="110" height="30" as="geometry" />
        </mxCell>
        <mxCell id="zgJvrpXNEwTxWeU-P69i-126" value="Error Mess" style="text;html=1;strokeColor=none;fillColor=none;align=center;verticalAlign=middle;whiteSpace=wrap;rounded=0;" parent="1" vertex="1">
          <mxGeometry x="514" y="1480" width="80" height="30" as="geometry" />
        </mxCell>
        <mxCell id="zgJvrpXNEwTxWeU-P69i-127" value="Invalid" style="html=1;verticalAlign=bottom;endArrow=open;dashed=1;endSize=8;edgeStyle=elbowEdgeStyle;elbow=vertical;curved=0;rounded=0;entryX=0;entryY=0.5;entryDx=0;entryDy=0;" parent="1" edge="1">
          <mxGeometry x="-0.6612" relative="1" as="geometry">
            <mxPoint x="594" y="1485" as="sourcePoint" />
            <mxPoint x="594" y="1430" as="targetPoint" />
            <Array as="points">
              <mxPoint x="514" y="1485" />
            </Array>
            <mxPoint as="offset" />
          </mxGeometry>
        </mxCell>
        <mxCell id="zgJvrpXNEwTxWeU-P69i-138" style="edgeStyle=orthogonalEdgeStyle;rounded=0;orthogonalLoop=1;jettySize=auto;html=1;exitX=1;exitY=0.5;exitDx=0;exitDy=0;" parent="1" source="zgJvrpXNEwTxWeU-P69i-128" target="zgJvrpXNEwTxWeU-P69i-134" edge="1">
          <mxGeometry relative="1" as="geometry" />
        </mxCell>
        <mxCell id="zgJvrpXNEwTxWeU-P69i-128" value="" style="rounded=0;whiteSpace=wrap;html=1;" parent="1" vertex="1">
          <mxGeometry x="934" y="1390" width="20" height="80" as="geometry" />
        </mxCell>
        <mxCell id="zgJvrpXNEwTxWeU-P69i-129" value="senMail" style="rounded=0;whiteSpace=wrap;html=1;" parent="1" vertex="1">
          <mxGeometry x="894" y="1310" width="100" height="50" as="geometry" />
        </mxCell>
        <mxCell id="zgJvrpXNEwTxWeU-P69i-130" value="" style="endArrow=none;dashed=1;html=1;rounded=0;entryX=0.5;entryY=1;entryDx=0;entryDy=0;exitX=0.5;exitY=0;exitDx=0;exitDy=0;" parent="1" source="zgJvrpXNEwTxWeU-P69i-128" target="zgJvrpXNEwTxWeU-P69i-129" edge="1">
          <mxGeometry width="50" height="50" relative="1" as="geometry">
            <mxPoint x="494" y="1400" as="sourcePoint" />
            <mxPoint x="544" y="1350" as="targetPoint" />
          </mxGeometry>
        </mxCell>
        <mxCell id="zgJvrpXNEwTxWeU-P69i-132" value="ParentEmail" style="text;html=1;strokeColor=none;fillColor=none;align=center;verticalAlign=middle;whiteSpace=wrap;rounded=0;" parent="1" vertex="1">
          <mxGeometry x="854" y="1500" width="60" height="30" as="geometry" />
        </mxCell>
        <mxCell id="zgJvrpXNEwTxWeU-P69i-134" value="" style="rounded=0;whiteSpace=wrap;html=1;" parent="1" vertex="1">
          <mxGeometry x="1094" y="1390" width="20" height="80" as="geometry" />
        </mxCell>
        <mxCell id="zgJvrpXNEwTxWeU-P69i-135" value="verifyCodeController" style="rounded=0;whiteSpace=wrap;html=1;" parent="1" vertex="1">
          <mxGeometry x="1039" y="1310" width="130" height="50" as="geometry" />
        </mxCell>
        <mxCell id="zgJvrpXNEwTxWeU-P69i-136" value="" style="endArrow=none;dashed=1;html=1;rounded=0;entryX=0.5;entryY=1;entryDx=0;entryDy=0;exitX=0.5;exitY=0;exitDx=0;exitDy=0;" parent="1" source="zgJvrpXNEwTxWeU-P69i-134" target="zgJvrpXNEwTxWeU-P69i-135" edge="1">
          <mxGeometry width="50" height="50" relative="1" as="geometry">
            <mxPoint x="654" y="1400" as="sourcePoint" />
            <mxPoint x="704" y="1350" as="targetPoint" />
          </mxGeometry>
        </mxCell>
        <mxCell id="zgJvrpXNEwTxWeU-P69i-139" value="Random code" style="text;html=1;strokeColor=none;fillColor=none;align=center;verticalAlign=middle;whiteSpace=wrap;rounded=0;" parent="1" vertex="1">
          <mxGeometry x="984" y="1405" width="80" height="30" as="geometry" />
        </mxCell>
        <mxCell id="zgJvrpXNEwTxWeU-P69i-143" value="Fail" style="text;html=1;align=center;verticalAlign=middle;resizable=0;points=[];autosize=1;strokeColor=none;fillColor=none;" parent="1" vertex="1">
          <mxGeometry x="1096.5" y="1500" width="40" height="30" as="geometry" />
        </mxCell>
        <mxCell id="zgJvrpXNEwTxWeU-P69i-145" value="" style="rounded=0;whiteSpace=wrap;html=1;" parent="1" vertex="1">
          <mxGeometry x="1279" y="1380" width="20" height="80" as="geometry" />
        </mxCell>
        <mxCell id="zgJvrpXNEwTxWeU-P69i-146" value="verifySuccess.jsp" style="rounded=0;whiteSpace=wrap;html=1;" parent="1" vertex="1">
          <mxGeometry x="1224" y="1310" width="130" height="50" as="geometry" />
        </mxCell>
        <mxCell id="zgJvrpXNEwTxWeU-P69i-147" value="" style="endArrow=none;dashed=1;html=1;rounded=0;entryX=0.5;entryY=1;entryDx=0;entryDy=0;exitX=0.5;exitY=0;exitDx=0;exitDy=0;" parent="1" source="zgJvrpXNEwTxWeU-P69i-145" target="zgJvrpXNEwTxWeU-P69i-146" edge="1">
          <mxGeometry width="50" height="50" relative="1" as="geometry">
            <mxPoint x="839" y="1390" as="sourcePoint" />
            <mxPoint x="889" y="1340" as="targetPoint" />
          </mxGeometry>
        </mxCell>
        <mxCell id="zgJvrpXNEwTxWeU-P69i-148" value="" style="rounded=0;whiteSpace=wrap;html=1;" parent="1" vertex="1">
          <mxGeometry x="1094" y="1550" width="20" height="50" as="geometry" />
        </mxCell>
        <mxCell id="zgJvrpXNEwTxWeU-P69i-155" style="edgeStyle=orthogonalEdgeStyle;rounded=0;orthogonalLoop=1;jettySize=auto;html=1;exitX=0.5;exitY=1;exitDx=0;exitDy=0;" parent="1" source="zgJvrpXNEwTxWeU-P69i-149" edge="1">
          <mxGeometry relative="1" as="geometry">
            <mxPoint x="1104.25" y="1660.25" as="targetPoint" />
          </mxGeometry>
        </mxCell>
        <mxCell id="zgJvrpXNEwTxWeU-P69i-149" value="verifyfail.jsp" style="rounded=0;whiteSpace=wrap;html=1;" parent="1" vertex="1">
          <mxGeometry x="1069" y="1620" width="70" height="40" as="geometry" />
        </mxCell>
        <mxCell id="zgJvrpXNEwTxWeU-P69i-150" value="" style="endArrow=none;dashed=1;html=1;rounded=0;entryX=0.5;entryY=1;entryDx=0;entryDy=0;exitX=0.5;exitY=0;exitDx=0;exitDy=0;" parent="1" source="zgJvrpXNEwTxWeU-P69i-149" target="zgJvrpXNEwTxWeU-P69i-148" edge="1">
          <mxGeometry width="50" height="50" relative="1" as="geometry">
            <mxPoint x="939" y="1590" as="sourcePoint" />
            <mxPoint x="989" y="1540" as="targetPoint" />
          </mxGeometry>
        </mxCell>
        <mxCell id="zgJvrpXNEwTxWeU-P69i-154" value="Success" style="text;html=1;strokeColor=none;fillColor=none;align=center;verticalAlign=middle;whiteSpace=wrap;rounded=0;" parent="1" vertex="1">
          <mxGeometry x="1164" y="1400" width="60" height="30" as="geometry" />
        </mxCell>
        <mxCell id="zgJvrpXNEwTxWeU-P69i-165" style="edgeStyle=orthogonalEdgeStyle;rounded=0;orthogonalLoop=1;jettySize=auto;html=1;exitX=0.5;exitY=1;exitDx=0;exitDy=0;" parent="1" edge="1">
          <mxGeometry relative="1" as="geometry">
            <mxPoint x="759" y="1610" as="sourcePoint" />
            <mxPoint x="759" y="1610" as="targetPoint" />
          </mxGeometry>
        </mxCell>
        <mxCell id="OS-VpMHr_oTkPdKjHbIb-52" style="edgeStyle=orthogonalEdgeStyle;rounded=0;orthogonalLoop=1;jettySize=auto;html=1;exitX=1;exitY=0.5;exitDx=0;exitDy=0;entryX=0;entryY=0.5;entryDx=0;entryDy=0;" edge="1" parent="1" source="zgJvrpXNEwTxWeU-P69i-170" target="OS-VpMHr_oTkPdKjHbIb-49">
          <mxGeometry relative="1" as="geometry" />
        </mxCell>
        <mxCell id="zgJvrpXNEwTxWeU-P69i-170" value="" style="rounded=0;whiteSpace=wrap;html=1;" parent="1" vertex="1">
          <mxGeometry x="574" y="1635" width="20" height="50" as="geometry" />
        </mxCell>
        <mxCell id="zgJvrpXNEwTxWeU-P69i-171" value="AccountBDContext" style="rounded=0;whiteSpace=wrap;html=1;" parent="1" vertex="1">
          <mxGeometry x="534.5" y="1707.5" width="99" height="40" as="geometry" />
        </mxCell>
        <mxCell id="zgJvrpXNEwTxWeU-P69i-172" value="" style="endArrow=none;dashed=1;html=1;rounded=0;entryX=0.5;entryY=1;entryDx=0;entryDy=0;exitX=0.5;exitY=0;exitDx=0;exitDy=0;" parent="1" source="zgJvrpXNEwTxWeU-P69i-171" target="zgJvrpXNEwTxWeU-P69i-170" edge="1">
          <mxGeometry width="50" height="50" relative="1" as="geometry">
            <mxPoint x="384" y="1675" as="sourcePoint" />
            <mxPoint x="434" y="1625" as="targetPoint" />
          </mxGeometry>
        </mxCell>
        <mxCell id="zgJvrpXNEwTxWeU-P69i-181" value="User" style="shape=umlActor;verticalLabelPosition=bottom;verticalAlign=top;html=1;outlineConnect=0;" parent="1" vertex="1">
          <mxGeometry x="1082.5" y="325" width="30" height="60" as="geometry" />
        </mxCell>
        <mxCell id="zgJvrpXNEwTxWeU-P69i-182" value="" style="rounded=0;whiteSpace=wrap;html=1;" parent="1" vertex="1">
          <mxGeometry x="1262.5" y="325" width="20" height="180" as="geometry" />
        </mxCell>
        <mxCell id="zgJvrpXNEwTxWeU-P69i-183" value="" style="endArrow=classic;html=1;rounded=0;" parent="1" edge="1">
          <mxGeometry width="50" height="50" relative="1" as="geometry">
            <mxPoint x="1112.5" y="365" as="sourcePoint" />
            <mxPoint x="1262.5" y="365" as="targetPoint" />
            <Array as="points">
              <mxPoint x="1172.5" y="365" />
              <mxPoint x="1212.5" y="365" />
            </Array>
          </mxGeometry>
        </mxCell>
        <mxCell id="zgJvrpXNEwTxWeU-P69i-184" value="Access website" style="text;html=1;strokeColor=none;fillColor=none;align=center;verticalAlign=middle;whiteSpace=wrap;rounded=0;" parent="1" vertex="1">
          <mxGeometry x="1142.5" y="340" width="90" height="30" as="geometry" />
        </mxCell>
        <mxCell id="zgJvrpXNEwTxWeU-P69i-185" value="homePage" style="rounded=0;whiteSpace=wrap;html=1;" parent="1" vertex="1">
          <mxGeometry x="1222.5" y="245" width="100" height="50" as="geometry" />
        </mxCell>
        <mxCell id="zgJvrpXNEwTxWeU-P69i-186" value="" style="endArrow=none;dashed=1;html=1;rounded=0;entryX=0.5;entryY=1;entryDx=0;entryDy=0;exitX=0.5;exitY=0;exitDx=0;exitDy=0;" parent="1" source="zgJvrpXNEwTxWeU-P69i-182" target="zgJvrpXNEwTxWeU-P69i-185" edge="1">
          <mxGeometry width="50" height="50" relative="1" as="geometry">
            <mxPoint x="1202.5" y="365" as="sourcePoint" />
            <mxPoint x="1252.5" y="315" as="targetPoint" />
          </mxGeometry>
        </mxCell>
        <mxCell id="zgJvrpXNEwTxWeU-P69i-192" value="" style="endArrow=classic;html=1;rounded=0;exitX=1;exitY=0.25;exitDx=0;exitDy=0;entryX=0.053;entryY=0.356;entryDx=0;entryDy=0;entryPerimeter=0;" parent="1" source="zgJvrpXNEwTxWeU-P69i-182" edge="1" target="zgJvrpXNEwTxWeU-P69i-195">
          <mxGeometry width="50" height="50" relative="1" as="geometry">
            <mxPoint x="1402.5" y="365" as="sourcePoint" />
            <mxPoint x="1410" y="370" as="targetPoint" />
          </mxGeometry>
        </mxCell>
        <mxCell id="zgJvrpXNEwTxWeU-P69i-215" style="edgeStyle=orthogonalEdgeStyle;rounded=0;orthogonalLoop=1;jettySize=auto;html=1;exitX=1;exitY=0.5;exitDx=0;exitDy=0;entryX=0;entryY=0.75;entryDx=0;entryDy=0;" parent="1" source="zgJvrpXNEwTxWeU-P69i-195" target="zgJvrpXNEwTxWeU-P69i-212" edge="1">
          <mxGeometry relative="1" as="geometry">
            <Array as="points">
              <mxPoint x="1445" y="380" />
            </Array>
          </mxGeometry>
        </mxCell>
        <mxCell id="OS-VpMHr_oTkPdKjHbIb-19" style="edgeStyle=orthogonalEdgeStyle;rounded=0;orthogonalLoop=1;jettySize=auto;html=1;exitX=0;exitY=0.75;exitDx=0;exitDy=0;entryX=0;entryY=0.25;entryDx=0;entryDy=0;" edge="1" parent="1" source="zgJvrpXNEwTxWeU-P69i-195" target="OS-VpMHr_oTkPdKjHbIb-11">
          <mxGeometry relative="1" as="geometry" />
        </mxCell>
        <mxCell id="zgJvrpXNEwTxWeU-P69i-195" value="" style="rounded=0;whiteSpace=wrap;html=1;" parent="1" vertex="1">
          <mxGeometry x="1425" y="330" width="20" height="110" as="geometry" />
        </mxCell>
        <mxCell id="zgJvrpXNEwTxWeU-P69i-196" value="ForgetPasswordController" style="rounded=0;whiteSpace=wrap;html=1;" parent="1" vertex="1">
          <mxGeometry x="1360" y="245" width="150" height="50" as="geometry" />
        </mxCell>
        <mxCell id="zgJvrpXNEwTxWeU-P69i-197" value="" style="endArrow=none;dashed=1;html=1;rounded=0;exitX=0.5;exitY=0;exitDx=0;exitDy=0;" parent="1" source="zgJvrpXNEwTxWeU-P69i-195" target="zgJvrpXNEwTxWeU-P69i-196" edge="1">
          <mxGeometry width="50" height="50" relative="1" as="geometry">
            <mxPoint x="1325" y="370" as="sourcePoint" />
            <mxPoint x="1375" y="320" as="targetPoint" />
          </mxGeometry>
        </mxCell>
        <mxCell id="zgJvrpXNEwTxWeU-P69i-198" value="username, parentEmail" style="text;html=1;strokeColor=none;fillColor=none;align=center;verticalAlign=middle;whiteSpace=wrap;rounded=0;" parent="1" vertex="1">
          <mxGeometry x="1440" y="460" width="80" height="30" as="geometry" />
        </mxCell>
        <mxCell id="zgJvrpXNEwTxWeU-P69i-204" style="edgeStyle=orthogonalEdgeStyle;rounded=0;orthogonalLoop=1;jettySize=auto;html=1;exitX=1;exitY=0.5;exitDx=0;exitDy=0;" parent="1" source="zgJvrpXNEwTxWeU-P69i-205" target="zgJvrpXNEwTxWeU-P69i-208" edge="1">
          <mxGeometry relative="1" as="geometry">
            <Array as="points">
              <mxPoint x="1767" y="364" />
            </Array>
          </mxGeometry>
        </mxCell>
        <mxCell id="zgJvrpXNEwTxWeU-P69i-205" value="" style="rounded=0;whiteSpace=wrap;html=1;" parent="1" vertex="1">
          <mxGeometry x="1747.5" y="318.82" width="20" height="80" as="geometry" />
        </mxCell>
        <mxCell id="zgJvrpXNEwTxWeU-P69i-206" value="senMail" style="rounded=0;whiteSpace=wrap;html=1;" parent="1" vertex="1">
          <mxGeometry x="1707.5" y="238.82" width="100" height="50" as="geometry" />
        </mxCell>
        <mxCell id="zgJvrpXNEwTxWeU-P69i-207" value="" style="endArrow=none;dashed=1;html=1;rounded=0;entryX=0.5;entryY=1;entryDx=0;entryDy=0;exitX=0.5;exitY=0;exitDx=0;exitDy=0;" parent="1" source="zgJvrpXNEwTxWeU-P69i-205" target="zgJvrpXNEwTxWeU-P69i-206" edge="1">
          <mxGeometry width="50" height="50" relative="1" as="geometry">
            <mxPoint x="1307.5" y="328.82" as="sourcePoint" />
            <mxPoint x="1357.5" y="278.82" as="targetPoint" />
          </mxGeometry>
        </mxCell>
        <mxCell id="zgJvrpXNEwTxWeU-P69i-208" value="" style="rounded=0;whiteSpace=wrap;html=1;" parent="1" vertex="1">
          <mxGeometry x="1890" y="323.82" width="20" height="80" as="geometry" />
        </mxCell>
        <mxCell id="zgJvrpXNEwTxWeU-P69i-209" value="verifyCodeController" style="rounded=0;whiteSpace=wrap;html=1;" parent="1" vertex="1">
          <mxGeometry x="1835" y="243.82" width="130" height="50" as="geometry" />
        </mxCell>
        <mxCell id="zgJvrpXNEwTxWeU-P69i-210" value="" style="endArrow=none;dashed=1;html=1;rounded=0;entryX=0.5;entryY=1;entryDx=0;entryDy=0;exitX=0.5;exitY=0;exitDx=0;exitDy=0;" parent="1" source="zgJvrpXNEwTxWeU-P69i-208" target="zgJvrpXNEwTxWeU-P69i-209" edge="1">
          <mxGeometry width="50" height="50" relative="1" as="geometry">
            <mxPoint x="1450" y="333.82" as="sourcePoint" />
            <mxPoint x="1500" y="283.82" as="targetPoint" />
          </mxGeometry>
        </mxCell>
        <mxCell id="zgJvrpXNEwTxWeU-P69i-211" value="Random code" style="text;html=1;strokeColor=none;fillColor=none;align=center;verticalAlign=middle;whiteSpace=wrap;rounded=0;" parent="1" vertex="1">
          <mxGeometry x="1790" y="338.82" width="80" height="30" as="geometry" />
        </mxCell>
        <mxCell id="zgJvrpXNEwTxWeU-P69i-216" style="edgeStyle=orthogonalEdgeStyle;rounded=0;orthogonalLoop=1;jettySize=auto;html=1;exitX=1;exitY=0.5;exitDx=0;exitDy=0;" parent="1" source="zgJvrpXNEwTxWeU-P69i-212" target="zgJvrpXNEwTxWeU-P69i-205" edge="1">
          <mxGeometry relative="1" as="geometry" />
        </mxCell>
        <mxCell id="zgJvrpXNEwTxWeU-P69i-212" value="" style="rounded=0;whiteSpace=wrap;html=1;" parent="1" vertex="1">
          <mxGeometry x="1620" y="318.82" width="20" height="80" as="geometry" />
        </mxCell>
        <mxCell id="zgJvrpXNEwTxWeU-P69i-213" value="ChangePassword" style="rounded=0;whiteSpace=wrap;html=1;" parent="1" vertex="1">
          <mxGeometry x="1570" y="238.82" width="120" height="50" as="geometry" />
        </mxCell>
        <mxCell id="zgJvrpXNEwTxWeU-P69i-214" value="" style="endArrow=none;dashed=1;html=1;rounded=0;exitX=0.5;exitY=0;exitDx=0;exitDy=0;entryX=0.5;entryY=1;entryDx=0;entryDy=0;" parent="1" source="zgJvrpXNEwTxWeU-P69i-212" target="zgJvrpXNEwTxWeU-P69i-213" edge="1">
          <mxGeometry width="50" height="50" relative="1" as="geometry">
            <mxPoint x="1520" y="298.82" as="sourcePoint" />
            <mxPoint x="1570" y="248.82" as="targetPoint" />
          </mxGeometry>
        </mxCell>
        <mxCell id="zgJvrpXNEwTxWeU-P69i-221" value="" style="rounded=0;whiteSpace=wrap;html=1;" parent="1" vertex="1">
          <mxGeometry x="2075" y="313.82" width="20" height="80" as="geometry" />
        </mxCell>
        <mxCell id="zgJvrpXNEwTxWeU-P69i-222" value="verifySuccess.jsp" style="rounded=0;whiteSpace=wrap;html=1;" parent="1" vertex="1">
          <mxGeometry x="2020" y="243.82" width="130" height="50" as="geometry" />
        </mxCell>
        <mxCell id="zgJvrpXNEwTxWeU-P69i-223" value="" style="endArrow=none;dashed=1;html=1;rounded=0;entryX=0.5;entryY=1;entryDx=0;entryDy=0;exitX=0.5;exitY=0;exitDx=0;exitDy=0;" parent="1" source="zgJvrpXNEwTxWeU-P69i-221" target="zgJvrpXNEwTxWeU-P69i-222" edge="1">
          <mxGeometry width="50" height="50" relative="1" as="geometry">
            <mxPoint x="1635" y="323.82" as="sourcePoint" />
            <mxPoint x="1685" y="273.82" as="targetPoint" />
          </mxGeometry>
        </mxCell>
        <mxCell id="zgJvrpXNEwTxWeU-P69i-224" value="Success" style="text;html=1;strokeColor=none;fillColor=none;align=center;verticalAlign=middle;whiteSpace=wrap;rounded=0;" parent="1" vertex="1">
          <mxGeometry x="1960" y="333.82" width="60" height="30" as="geometry" />
        </mxCell>
        <mxCell id="zgJvrpXNEwTxWeU-P69i-228" value="" style="rounded=0;whiteSpace=wrap;html=1;" parent="1" vertex="1">
          <mxGeometry x="1887.5" y="483.82" width="20" height="50" as="geometry" />
        </mxCell>
        <mxCell id="zgJvrpXNEwTxWeU-P69i-229" style="edgeStyle=orthogonalEdgeStyle;rounded=0;orthogonalLoop=1;jettySize=auto;html=1;exitX=0.5;exitY=1;exitDx=0;exitDy=0;" parent="1" source="zgJvrpXNEwTxWeU-P69i-230" edge="1">
          <mxGeometry relative="1" as="geometry">
            <mxPoint x="1897.75" y="594.07" as="targetPoint" />
          </mxGeometry>
        </mxCell>
        <mxCell id="zgJvrpXNEwTxWeU-P69i-230" value="verifyfail.jsp" style="rounded=0;whiteSpace=wrap;html=1;" parent="1" vertex="1">
          <mxGeometry x="1862.5" y="553.82" width="70" height="40" as="geometry" />
        </mxCell>
        <mxCell id="zgJvrpXNEwTxWeU-P69i-231" value="" style="endArrow=none;dashed=1;html=1;rounded=0;entryX=0.5;entryY=1;entryDx=0;entryDy=0;exitX=0.5;exitY=0;exitDx=0;exitDy=0;" parent="1" source="zgJvrpXNEwTxWeU-P69i-230" target="zgJvrpXNEwTxWeU-P69i-228" edge="1">
          <mxGeometry width="50" height="50" relative="1" as="geometry">
            <mxPoint x="1732.5" y="523.82" as="sourcePoint" />
            <mxPoint x="1782.5" y="473.82" as="targetPoint" />
          </mxGeometry>
        </mxCell>
        <mxCell id="zgJvrpXNEwTxWeU-P69i-238" style="edgeStyle=orthogonalEdgeStyle;rounded=0;orthogonalLoop=1;jettySize=auto;html=1;exitX=0.5;exitY=0.5;exitDx=0;exitDy=0;exitPerimeter=0;entryX=0;entryY=0.25;entryDx=0;entryDy=0;" parent="1" source="zgJvrpXNEwTxWeU-P69i-232" target="zgJvrpXNEwTxWeU-P69i-233" edge="1">
          <mxGeometry relative="1" as="geometry">
            <Array as="points">
              <mxPoint x="2185" y="1425" />
            </Array>
          </mxGeometry>
        </mxCell>
        <mxCell id="zgJvrpXNEwTxWeU-P69i-232" value="Admin" style="shape=umlActor;verticalLabelPosition=bottom;verticalAlign=top;html=1;outlineConnect=0;" parent="1" vertex="1">
          <mxGeometry x="2170" y="1390" width="30" height="60" as="geometry" />
        </mxCell>
        <mxCell id="zgJvrpXNEwTxWeU-P69i-242" style="edgeStyle=orthogonalEdgeStyle;rounded=0;orthogonalLoop=1;jettySize=auto;html=1;exitX=1;exitY=0.25;exitDx=0;exitDy=0;entryX=0.042;entryY=0.412;entryDx=0;entryDy=0;entryPerimeter=0;" parent="1" source="zgJvrpXNEwTxWeU-P69i-233" target="zgJvrpXNEwTxWeU-P69i-239" edge="1">
          <mxGeometry relative="1" as="geometry" />
        </mxCell>
        <mxCell id="zgJvrpXNEwTxWeU-P69i-233" value="" style="rounded=0;whiteSpace=wrap;html=1;" parent="1" vertex="1">
          <mxGeometry x="2332.5" y="1380" width="20" height="180" as="geometry" />
        </mxCell>
        <mxCell id="zgJvrpXNEwTxWeU-P69i-234" value="Access website" style="text;html=1;strokeColor=none;fillColor=none;align=center;verticalAlign=middle;whiteSpace=wrap;rounded=0;" parent="1" vertex="1">
          <mxGeometry x="2220" y="1385" width="90" height="30" as="geometry" />
        </mxCell>
        <mxCell id="zgJvrpXNEwTxWeU-P69i-235" value="homePage" style="rounded=0;whiteSpace=wrap;html=1;" parent="1" vertex="1">
          <mxGeometry x="2292.5" y="1300" width="100" height="50" as="geometry" />
        </mxCell>
        <mxCell id="zgJvrpXNEwTxWeU-P69i-236" value="" style="endArrow=none;dashed=1;html=1;rounded=0;entryX=0.5;entryY=1;entryDx=0;entryDy=0;exitX=0.5;exitY=0;exitDx=0;exitDy=0;" parent="1" source="zgJvrpXNEwTxWeU-P69i-233" target="zgJvrpXNEwTxWeU-P69i-235" edge="1">
          <mxGeometry width="50" height="50" relative="1" as="geometry">
            <mxPoint x="2272.5" y="1420" as="sourcePoint" />
            <mxPoint x="2322.5" y="1370" as="targetPoint" />
          </mxGeometry>
        </mxCell>
        <mxCell id="kSUuMkcsXtGZUpF6bscl-65" style="edgeStyle=orthogonalEdgeStyle;rounded=0;orthogonalLoop=1;jettySize=auto;html=1;exitX=1;exitY=0.25;exitDx=0;exitDy=0;entryX=-0.027;entryY=0.155;entryDx=0;entryDy=0;entryPerimeter=0;" parent="1" source="zgJvrpXNEwTxWeU-P69i-239" target="zgJvrpXNEwTxWeU-P69i-255" edge="1">
          <mxGeometry relative="1" as="geometry" />
        </mxCell>
        <mxCell id="zgJvrpXNEwTxWeU-P69i-239" value="" style="rounded=0;whiteSpace=wrap;html=1;" parent="1" vertex="1">
          <mxGeometry x="2530" y="1380" width="20" height="110" as="geometry" />
        </mxCell>
        <mxCell id="zgJvrpXNEwTxWeU-P69i-240" value="UserManagement" style="rounded=0;whiteSpace=wrap;html=1;" parent="1" vertex="1">
          <mxGeometry x="2490" y="1300" width="100" height="50" as="geometry" />
        </mxCell>
        <mxCell id="zgJvrpXNEwTxWeU-P69i-241" value="" style="endArrow=none;dashed=1;html=1;rounded=0;exitX=0.5;exitY=0;exitDx=0;exitDy=0;" parent="1" source="zgJvrpXNEwTxWeU-P69i-239" target="zgJvrpXNEwTxWeU-P69i-240" edge="1">
          <mxGeometry width="50" height="50" relative="1" as="geometry">
            <mxPoint x="2340" y="1420" as="sourcePoint" />
            <mxPoint x="2390" y="1370" as="targetPoint" />
          </mxGeometry>
        </mxCell>
        <mxCell id="zgJvrpXNEwTxWeU-P69i-255" value="" style="rounded=0;whiteSpace=wrap;html=1;" parent="1" vertex="1">
          <mxGeometry x="2680" y="1380" width="20" height="180" as="geometry" />
        </mxCell>
        <mxCell id="zgJvrpXNEwTxWeU-P69i-256" value="UserBDContext" style="rounded=0;whiteSpace=wrap;html=1;" parent="1" vertex="1">
          <mxGeometry x="2640" y="1300" width="100" height="50" as="geometry" />
        </mxCell>
        <mxCell id="zgJvrpXNEwTxWeU-P69i-257" value="" style="endArrow=none;dashed=1;html=1;rounded=0;entryX=0.5;entryY=1;entryDx=0;entryDy=0;exitX=0.5;exitY=0;exitDx=0;exitDy=0;" parent="1" source="zgJvrpXNEwTxWeU-P69i-255" target="zgJvrpXNEwTxWeU-P69i-256" edge="1">
          <mxGeometry width="50" height="50" relative="1" as="geometry">
            <mxPoint x="2620" y="1420" as="sourcePoint" />
            <mxPoint x="2670" y="1370" as="targetPoint" />
          </mxGeometry>
        </mxCell>
        <mxCell id="xY837BgTn_Tldz1_QdXJ-1" value="LoginController" style="swimlane;whiteSpace=wrap;html=1;" parent="1" vertex="1">
          <mxGeometry x="3050" y="320" width="280" height="250" as="geometry" />
        </mxCell>
        <mxCell id="xY837BgTn_Tldz1_QdXJ-2" value="#processRequest(HttpServletRequest request,&lt;br&gt;&amp;nbsp;HttpServletResponse response): void&lt;br&gt;&lt;br&gt;#doGet(HttpServletRequest request,&lt;br&gt;&amp;nbsp;HttpServletResponse response): void&lt;br&gt;&lt;br&gt;&lt;br&gt;#doPost(HttpServletRequest request,&lt;br&gt;&amp;nbsp;HttpServletResponse response): void" style="text;html=1;align=left;verticalAlign=middle;resizable=0;points=[];autosize=1;strokeColor=none;fillColor=none;" parent="xY837BgTn_Tldz1_QdXJ-1" vertex="1">
          <mxGeometry x="10" y="55" width="270" height="140" as="geometry" />
        </mxCell>
        <mxCell id="xY837BgTn_Tldz1_QdXJ-12" style="edgeStyle=orthogonalEdgeStyle;rounded=0;orthogonalLoop=1;jettySize=auto;html=1;entryX=0.529;entryY=0;entryDx=0;entryDy=0;entryPerimeter=0;" parent="1" source="xY837BgTn_Tldz1_QdXJ-3" target="xY837BgTn_Tldz1_QdXJ-7" edge="1">
          <mxGeometry relative="1" as="geometry" />
        </mxCell>
        <mxCell id="xY837BgTn_Tldz1_QdXJ-3" value="AccountDBContext" style="swimlane;whiteSpace=wrap;html=1;" parent="1" vertex="1">
          <mxGeometry x="3500" y="330" width="200" height="200" as="geometry" />
        </mxCell>
        <mxCell id="xY837BgTn_Tldz1_QdXJ-5" value="+login(String username,&lt;br&gt;&amp;nbsp;String password) : Account" style="text;html=1;align=left;verticalAlign=middle;resizable=0;points=[];autosize=1;strokeColor=none;fillColor=none;" parent="xY837BgTn_Tldz1_QdXJ-3" vertex="1">
          <mxGeometry x="25" y="80" width="170" height="40" as="geometry" />
        </mxCell>
        <mxCell id="xY837BgTn_Tldz1_QdXJ-6" value="" style="endArrow=classic;html=1;rounded=0;" parent="1" edge="1">
          <mxGeometry width="50" height="50" relative="1" as="geometry">
            <mxPoint x="3330" y="440" as="sourcePoint" />
            <mxPoint x="3500" y="440" as="targetPoint" />
          </mxGeometry>
        </mxCell>
        <mxCell id="xY837BgTn_Tldz1_QdXJ-7" value="DBContext" style="swimlane;whiteSpace=wrap;html=1;" parent="1" vertex="1">
          <mxGeometry x="3510" y="580" width="170" height="150" as="geometry" />
        </mxCell>
        <mxCell id="xY837BgTn_Tldz1_QdXJ-9" value="# connection : Connection" style="text;html=1;align=center;verticalAlign=middle;resizable=0;points=[];autosize=1;strokeColor=none;fillColor=none;" parent="xY837BgTn_Tldz1_QdXJ-7" vertex="1">
          <mxGeometry x="5" y="30" width="160" height="30" as="geometry" />
        </mxCell>
        <mxCell id="xY837BgTn_Tldz1_QdXJ-10" value="+DBContext()" style="text;html=1;align=center;verticalAlign=middle;resizable=0;points=[];autosize=1;strokeColor=none;fillColor=none;" parent="xY837BgTn_Tldz1_QdXJ-7" vertex="1">
          <mxGeometry x="35" y="100" width="100" height="30" as="geometry" />
        </mxCell>
        <mxCell id="xY837BgTn_Tldz1_QdXJ-8" value="" style="endArrow=none;html=1;rounded=0;entryX=1;entryY=0.5;entryDx=0;entryDy=0;exitX=0;exitY=0.5;exitDx=0;exitDy=0;" parent="1" source="xY837BgTn_Tldz1_QdXJ-7" target="xY837BgTn_Tldz1_QdXJ-7" edge="1">
          <mxGeometry width="50" height="50" relative="1" as="geometry">
            <mxPoint x="3480" y="750" as="sourcePoint" />
            <mxPoint x="3530" y="700" as="targetPoint" />
          </mxGeometry>
        </mxCell>
        <mxCell id="xY837BgTn_Tldz1_QdXJ-11" value="Use" style="text;html=1;align=center;verticalAlign=middle;resizable=0;points=[];autosize=1;strokeColor=none;fillColor=none;" parent="1" vertex="1">
          <mxGeometry x="3380" y="405" width="40" height="30" as="geometry" />
        </mxCell>
        <mxCell id="xY837BgTn_Tldz1_QdXJ-21" style="edgeStyle=orthogonalEdgeStyle;rounded=0;orthogonalLoop=1;jettySize=auto;html=1;entryX=0;entryY=0.5;entryDx=0;entryDy=0;" parent="1" source="xY837BgTn_Tldz1_QdXJ-16" target="xY837BgTn_Tldz1_QdXJ-19" edge="1">
          <mxGeometry relative="1" as="geometry" />
        </mxCell>
        <mxCell id="xY837BgTn_Tldz1_QdXJ-16" value="SignupController" style="swimlane;whiteSpace=wrap;html=1;" parent="1" vertex="1">
          <mxGeometry x="3360" y="960" width="280" height="250" as="geometry" />
        </mxCell>
        <mxCell id="xY837BgTn_Tldz1_QdXJ-17" value="#processRequest(HttpServletRequest request,&lt;br&gt;&amp;nbsp;HttpServletResponse response): void&lt;br&gt;&lt;br&gt;#doGet(HttpServletRequest request,&lt;br&gt;&amp;nbsp;HttpServletResponse response): void&lt;br&gt;&lt;br&gt;&lt;br&gt;#doPost(HttpServletRequest request,&lt;br&gt;&amp;nbsp;HttpServletResponse response): void" style="text;html=1;align=left;verticalAlign=middle;resizable=0;points=[];autosize=1;strokeColor=none;fillColor=none;" parent="xY837BgTn_Tldz1_QdXJ-16" vertex="1">
          <mxGeometry x="20" y="55" width="270" height="140" as="geometry" />
        </mxCell>
        <mxCell id="xY837BgTn_Tldz1_QdXJ-24" style="edgeStyle=orthogonalEdgeStyle;rounded=0;orthogonalLoop=1;jettySize=auto;html=1;entryX=0;entryY=0.5;entryDx=0;entryDy=0;" parent="1" source="xY837BgTn_Tldz1_QdXJ-19" target="xY837BgTn_Tldz1_QdXJ-22" edge="1">
          <mxGeometry relative="1" as="geometry" />
        </mxCell>
        <mxCell id="xY837BgTn_Tldz1_QdXJ-19" value="Fillin4Controller" style="swimlane;whiteSpace=wrap;html=1;" parent="1" vertex="1">
          <mxGeometry x="3775" y="960" width="280" height="250" as="geometry" />
        </mxCell>
        <mxCell id="xY837BgTn_Tldz1_QdXJ-20" value="#processRequest(HttpServletRequest request,&lt;br&gt;&amp;nbsp;HttpServletResponse response): void&lt;br&gt;&lt;br&gt;#doGet(HttpServletRequest request,&lt;br&gt;&amp;nbsp;HttpServletResponse response): void&lt;br&gt;&lt;br&gt;&lt;br&gt;#doPost(HttpServletRequest request,&lt;br&gt;&amp;nbsp;HttpServletResponse response): void" style="text;html=1;align=left;verticalAlign=middle;resizable=0;points=[];autosize=1;strokeColor=none;fillColor=none;" parent="xY837BgTn_Tldz1_QdXJ-19" vertex="1">
          <mxGeometry x="20" y="55" width="270" height="140" as="geometry" />
        </mxCell>
        <mxCell id="xY837BgTn_Tldz1_QdXJ-22" value="Fillin4Controller" style="swimlane;whiteSpace=wrap;html=1;" parent="1" vertex="1">
          <mxGeometry x="4170" y="960" width="290" height="250" as="geometry" />
        </mxCell>
        <mxCell id="xY837BgTn_Tldz1_QdXJ-23" value="+&amp;nbsp;getRandomNumberString() : String&lt;br&gt;&lt;br&gt;+&amp;nbsp;messageProcess(String verifyCode) : String&lt;br&gt;&lt;br&gt;#doGet(HttpServletRequest request,&lt;br&gt;&amp;nbsp;HttpServletResponse response): void&lt;br&gt;&lt;br&gt;&lt;br&gt;#doPost(HttpServletRequest request,&lt;br&gt;&amp;nbsp;HttpServletResponse response): void" style="text;html=1;align=left;verticalAlign=middle;resizable=0;points=[];autosize=1;strokeColor=none;fillColor=none;" parent="xY837BgTn_Tldz1_QdXJ-22" vertex="1">
          <mxGeometry x="20" y="45" width="270" height="160" as="geometry" />
        </mxCell>
        <mxCell id="xY837BgTn_Tldz1_QdXJ-26" value="enterMailController" style="swimlane;whiteSpace=wrap;html=1;" parent="1" vertex="1">
          <mxGeometry x="4550" y="960" width="290" height="250" as="geometry" />
        </mxCell>
        <mxCell id="xY837BgTn_Tldz1_QdXJ-27" value="+&amp;nbsp;getRandomNumberString() : String&lt;br&gt;&lt;br&gt;+&amp;nbsp;messageProcess(String verifyCode) : String&lt;br&gt;&lt;br&gt;#doGet(HttpServletRequest request,&lt;br&gt;&amp;nbsp;HttpServletResponse response): void&lt;br&gt;&lt;br&gt;&lt;br&gt;#doPost(HttpServletRequest request,&lt;br&gt;&amp;nbsp;HttpServletResponse response): void" style="text;html=1;align=left;verticalAlign=middle;resizable=0;points=[];autosize=1;strokeColor=none;fillColor=none;" parent="xY837BgTn_Tldz1_QdXJ-26" vertex="1">
          <mxGeometry x="20" y="45" width="270" height="160" as="geometry" />
        </mxCell>
        <mxCell id="SoPgDfdUoOXwzDtGXs2j-24" style="edgeStyle=orthogonalEdgeStyle;rounded=0;orthogonalLoop=1;jettySize=auto;html=1;" parent="1" source="SoPgDfdUoOXwzDtGXs2j-1" edge="1">
          <mxGeometry relative="1" as="geometry">
            <mxPoint x="3860" y="1775" as="targetPoint" />
          </mxGeometry>
        </mxCell>
        <mxCell id="SoPgDfdUoOXwzDtGXs2j-27" style="edgeStyle=orthogonalEdgeStyle;rounded=0;orthogonalLoop=1;jettySize=auto;html=1;exitX=1;exitY=1;exitDx=0;exitDy=0;entryX=0.005;entryY=0.645;entryDx=0;entryDy=0;entryPerimeter=0;" parent="1" source="SoPgDfdUoOXwzDtGXs2j-1" target="SoPgDfdUoOXwzDtGXs2j-12" edge="1">
          <mxGeometry relative="1" as="geometry" />
        </mxCell>
        <mxCell id="SoPgDfdUoOXwzDtGXs2j-1" value="Login Controller" style="swimlane;whiteSpace=wrap;html=1;" parent="1" vertex="1">
          <mxGeometry x="3440" y="1675" width="270" height="200" as="geometry" />
        </mxCell>
        <mxCell id="SoPgDfdUoOXwzDtGXs2j-2" value="#&amp;nbsp;processRequest(HttpServletRequest request,&lt;br&gt;&amp;nbsp;HttpServletResponse response): void" style="text;html=1;align=center;verticalAlign=middle;resizable=0;points=[];autosize=1;strokeColor=none;fillColor=none;" parent="SoPgDfdUoOXwzDtGXs2j-1" vertex="1">
          <mxGeometry y="35" width="270" height="40" as="geometry" />
        </mxCell>
        <mxCell id="SoPgDfdUoOXwzDtGXs2j-3" value="#&amp;nbsp;doGet(HttpServletRequest request,&lt;br&gt;&amp;nbsp;HttpServletResponse response): void" style="text;html=1;align=center;verticalAlign=middle;resizable=0;points=[];autosize=1;strokeColor=none;fillColor=none;" parent="SoPgDfdUoOXwzDtGXs2j-1" vertex="1">
          <mxGeometry y="95" width="230" height="40" as="geometry" />
        </mxCell>
        <mxCell id="SoPgDfdUoOXwzDtGXs2j-4" value="#&amp;nbsp;doPost(HttpServletRequest request,&lt;br&gt;&amp;nbsp;HttpServletResponse response): void" style="text;html=1;align=center;verticalAlign=middle;resizable=0;points=[];autosize=1;strokeColor=none;fillColor=none;" parent="SoPgDfdUoOXwzDtGXs2j-1" vertex="1">
          <mxGeometry y="145" width="230" height="40" as="geometry" />
        </mxCell>
        <mxCell id="SoPgDfdUoOXwzDtGXs2j-28" style="edgeStyle=orthogonalEdgeStyle;rounded=0;orthogonalLoop=1;jettySize=auto;html=1;exitX=0.75;exitY=1;exitDx=0;exitDy=0;entryX=0.798;entryY=-0.026;entryDx=0;entryDy=0;entryPerimeter=0;" parent="1" source="SoPgDfdUoOXwzDtGXs2j-9" target="SoPgDfdUoOXwzDtGXs2j-20" edge="1">
          <mxGeometry relative="1" as="geometry">
            <Array as="points">
              <mxPoint x="3991" y="1960" />
              <mxPoint x="3995" y="1960" />
              <mxPoint x="3995" y="1987" />
            </Array>
          </mxGeometry>
        </mxCell>
        <mxCell id="SoPgDfdUoOXwzDtGXs2j-30" style="edgeStyle=orthogonalEdgeStyle;rounded=0;orthogonalLoop=1;jettySize=auto;html=1;exitX=1;exitY=0.25;exitDx=0;exitDy=0;" parent="1" source="SoPgDfdUoOXwzDtGXs2j-9" edge="1">
          <mxGeometry relative="1" as="geometry">
            <mxPoint x="4120" y="1706.0869565217395" as="targetPoint" />
          </mxGeometry>
        </mxCell>
        <mxCell id="SoPgDfdUoOXwzDtGXs2j-9" value="AccountDBContext" style="swimlane;whiteSpace=wrap;html=1;" parent="1" vertex="1">
          <mxGeometry x="3860" y="1675" width="175" height="125" as="geometry" />
        </mxCell>
        <mxCell id="SoPgDfdUoOXwzDtGXs2j-10" value="+ login(String username,&lt;br&gt;&amp;nbsp;String password) : Account" style="text;html=1;align=center;verticalAlign=middle;resizable=0;points=[];autosize=1;strokeColor=none;fillColor=none;" parent="SoPgDfdUoOXwzDtGXs2j-9" vertex="1">
          <mxGeometry x="5" y="35" width="170" height="40" as="geometry" />
        </mxCell>
        <mxCell id="SoPgDfdUoOXwzDtGXs2j-29" style="edgeStyle=orthogonalEdgeStyle;rounded=0;orthogonalLoop=1;jettySize=auto;html=1;exitX=0.75;exitY=1;exitDx=0;exitDy=0;entryX=0.154;entryY=0.002;entryDx=0;entryDy=0;entryPerimeter=0;" parent="1" source="SoPgDfdUoOXwzDtGXs2j-11" target="SoPgDfdUoOXwzDtGXs2j-20" edge="1">
          <mxGeometry relative="1" as="geometry" />
        </mxCell>
        <mxCell id="7pPE43i8_QESE7KWQKTa-10" style="edgeStyle=orthogonalEdgeStyle;rounded=0;orthogonalLoop=1;jettySize=auto;html=1;exitX=1;exitY=0.75;exitDx=0;exitDy=0;entryX=0;entryY=0;entryDx=0;entryDy=0;" parent="1" source="SoPgDfdUoOXwzDtGXs2j-11" target="SoPgDfdUoOXwzDtGXs2j-31" edge="1">
          <mxGeometry relative="1" as="geometry" />
        </mxCell>
        <mxCell id="SoPgDfdUoOXwzDtGXs2j-11" value="UserDBContext" style="swimlane;whiteSpace=wrap;html=1;" parent="1" vertex="1">
          <mxGeometry x="3745" y="1810" width="160" height="100" as="geometry" />
        </mxCell>
        <mxCell id="SoPgDfdUoOXwzDtGXs2j-12" value="+&amp;nbsp;getUserByUsername&lt;br&gt;(String username): User" style="text;html=1;align=center;verticalAlign=middle;resizable=0;points=[];autosize=1;strokeColor=none;fillColor=none;" parent="SoPgDfdUoOXwzDtGXs2j-11" vertex="1">
          <mxGeometry y="40" width="150" height="40" as="geometry" />
        </mxCell>
        <mxCell id="SoPgDfdUoOXwzDtGXs2j-13" value="Account" style="swimlane;whiteSpace=wrap;html=1;startSize=23;" parent="1" vertex="1">
          <mxGeometry x="4120" y="1600" width="300" height="250" as="geometry" />
        </mxCell>
        <mxCell id="SoPgDfdUoOXwzDtGXs2j-14" value="&lt;div style=&quot;text-align: left;&quot;&gt;&lt;span style=&quot;background-color: initial;&quot;&gt;+ getUsername() : String&lt;/span&gt;&lt;/div&gt;&lt;div style=&quot;text-align: left;&quot;&gt;&lt;span style=&quot;background-color: initial;&quot;&gt;+ setUsername(String username): void&lt;/span&gt;&lt;/div&gt;&lt;div style=&quot;text-align: left;&quot;&gt;&lt;span style=&quot;background-color: initial;&quot;&gt;+ getPassword(): String&lt;/span&gt;&lt;/div&gt;&lt;div style=&quot;text-align: left;&quot;&gt;&lt;span style=&quot;background-color: initial;&quot;&gt;+ setPassword(String password): void&lt;/span&gt;&lt;/div&gt;&lt;div style=&quot;text-align: left;&quot;&gt;&lt;span style=&quot;background-color: initial;&quot;&gt;+ getClassify_account(): String&lt;/span&gt;&lt;/div&gt;&lt;div style=&quot;text-align: left;&quot;&gt;&lt;span style=&quot;background-color: initial;&quot;&gt;+ setClassify_account(String classify_account): void&lt;/span&gt;&lt;/div&gt;&lt;div style=&quot;text-align: left;&quot;&gt;&lt;span style=&quot;background-color: initial;&quot;&gt;+ getRoles(): ArrayList&amp;lt;Role&amp;gt;&lt;/span&gt;&lt;/div&gt;&lt;div style=&quot;text-align: left;&quot;&gt;&lt;span style=&quot;background-color: initial;&quot;&gt;&amp;nbsp;&lt;/span&gt;&lt;/div&gt;" style="text;html=1;align=center;verticalAlign=middle;resizable=0;points=[];autosize=1;strokeColor=none;fillColor=none;" parent="SoPgDfdUoOXwzDtGXs2j-13" vertex="1">
          <mxGeometry y="120" width="300" height="130" as="geometry" />
        </mxCell>
        <mxCell id="SoPgDfdUoOXwzDtGXs2j-18" value="" style="endArrow=none;html=1;rounded=0;exitX=0.005;exitY=0.019;exitDx=0;exitDy=0;exitPerimeter=0;entryX=0.996;entryY=0.034;entryDx=0;entryDy=0;entryPerimeter=0;" parent="SoPgDfdUoOXwzDtGXs2j-13" source="SoPgDfdUoOXwzDtGXs2j-14" target="SoPgDfdUoOXwzDtGXs2j-14" edge="1">
          <mxGeometry width="50" height="50" relative="1" as="geometry">
            <mxPoint x="120" y="200" as="sourcePoint" />
            <mxPoint x="170" y="150" as="targetPoint" />
          </mxGeometry>
        </mxCell>
        <mxCell id="SoPgDfdUoOXwzDtGXs2j-19" value="-&amp;nbsp;username: String&lt;br&gt;- password: String&lt;br&gt;-classify_account: String" style="text;html=1;align=left;verticalAlign=middle;resizable=0;points=[];autosize=1;strokeColor=none;fillColor=none;" parent="SoPgDfdUoOXwzDtGXs2j-13" vertex="1">
          <mxGeometry x="20" y="40" width="150" height="60" as="geometry" />
        </mxCell>
        <mxCell id="SoPgDfdUoOXwzDtGXs2j-20" value="DBContext" style="swimlane;whiteSpace=wrap;html=1;" parent="1" vertex="1">
          <mxGeometry x="3835" y="2050" width="200" height="120" as="geometry" />
        </mxCell>
        <mxCell id="SoPgDfdUoOXwzDtGXs2j-22" value="-&amp;nbsp;connection: Connection" style="text;html=1;align=center;verticalAlign=middle;resizable=0;points=[];autosize=1;strokeColor=none;fillColor=none;" parent="SoPgDfdUoOXwzDtGXs2j-20" vertex="1">
          <mxGeometry x="10" y="30" width="160" height="30" as="geometry" />
        </mxCell>
        <mxCell id="SoPgDfdUoOXwzDtGXs2j-23" value="+&amp;nbsp;DBContext()" style="text;html=1;align=center;verticalAlign=middle;resizable=0;points=[];autosize=1;strokeColor=none;fillColor=none;" parent="SoPgDfdUoOXwzDtGXs2j-20" vertex="1">
          <mxGeometry x="35" y="70" width="100" height="30" as="geometry" />
        </mxCell>
        <mxCell id="SoPgDfdUoOXwzDtGXs2j-21" value="" style="endArrow=none;html=1;rounded=0;exitX=0;exitY=0.5;exitDx=0;exitDy=0;entryX=1;entryY=0.5;entryDx=0;entryDy=0;" parent="1" source="SoPgDfdUoOXwzDtGXs2j-20" target="SoPgDfdUoOXwzDtGXs2j-20" edge="1">
          <mxGeometry width="50" height="50" relative="1" as="geometry">
            <mxPoint x="3970" y="2150" as="sourcePoint" />
            <mxPoint x="4020" y="2100" as="targetPoint" />
          </mxGeometry>
        </mxCell>
        <mxCell id="SoPgDfdUoOXwzDtGXs2j-31" value="User" style="swimlane;whiteSpace=wrap;html=1;" parent="1" vertex="1">
          <mxGeometry x="4150" y="1910" width="420" height="520" as="geometry" />
        </mxCell>
        <mxCell id="SoPgDfdUoOXwzDtGXs2j-32" value="-&amp;nbsp;user_id: int&lt;br&gt;-&amp;nbsp;full_name: String&lt;br&gt;-&amp;nbsp;dob: Date&lt;br&gt;-&amp;nbsp;gender: boolean&lt;br&gt;- parent_name: String&lt;br&gt;- parent_email: String&lt;br&gt;-&amp;nbsp;parent_phone_number:&amp;nbsp;" style="text;html=1;align=left;verticalAlign=middle;resizable=0;points=[];autosize=1;strokeColor=none;fillColor=none;" parent="SoPgDfdUoOXwzDtGXs2j-31" vertex="1">
          <mxGeometry x="20" y="35" width="160" height="110" as="geometry" />
        </mxCell>
        <mxCell id="7pPE43i8_QESE7KWQKTa-7" value="&lt;div style=&quot;text-align: left;&quot;&gt;&lt;span style=&quot;background-color: initial;&quot;&gt;+ getUser_id(): String&lt;/span&gt;&lt;/div&gt;&lt;div style=&quot;text-align: left;&quot;&gt;&lt;span style=&quot;background-color: initial;&quot;&gt;+&amp;nbsp;getFull_name(): String&lt;/span&gt;&lt;/div&gt;&lt;div style=&quot;text-align: left;&quot;&gt;&lt;span style=&quot;background-color: initial;&quot;&gt;+&amp;nbsp;setUser_id(int user_id): void&lt;/span&gt;&lt;/div&gt;&lt;div style=&quot;text-align: left;&quot;&gt;&lt;span style=&quot;background-color: initial;&quot;&gt;+&amp;nbsp;setFull_name(String full_name): void&lt;/span&gt;&lt;/div&gt;&lt;div style=&quot;text-align: left;&quot;&gt;&lt;span style=&quot;background-color: initial;&quot;&gt;+ getDob(): Date&lt;/span&gt;&lt;/div&gt;&lt;div style=&quot;text-align: left;&quot;&gt;&lt;span style=&quot;background-color: initial;&quot;&gt;+&amp;nbsp;setDob(Date dob): void&lt;/span&gt;&lt;/div&gt;&lt;div style=&quot;text-align: left;&quot;&gt;&lt;span style=&quot;background-color: initial;&quot;&gt;+ getGender(): boolean&lt;/span&gt;&lt;/div&gt;&lt;div style=&quot;text-align: left;&quot;&gt;&lt;span style=&quot;background-color: initial;&quot;&gt;+&amp;nbsp;setGender(boolean gender): void&lt;/span&gt;&lt;/div&gt;&lt;div style=&quot;text-align: left;&quot;&gt;&lt;span style=&quot;background-color: initial;&quot;&gt;+&amp;nbsp;getParent_name(): String&lt;/span&gt;&lt;/div&gt;&lt;div style=&quot;text-align: left;&quot;&gt;&lt;span style=&quot;background-color: initial;&quot;&gt;+&amp;nbsp;setParent_name(String parent_name): void&lt;/span&gt;&lt;/div&gt;&lt;div style=&quot;text-align: left;&quot;&gt;&lt;span style=&quot;background-color: initial;&quot;&gt;+&amp;nbsp;getParent_email(): String&lt;/span&gt;&lt;/div&gt;&lt;div style=&quot;text-align: left;&quot;&gt;&lt;span style=&quot;background-color: initial;&quot;&gt;+&amp;nbsp;setParent_email(String parent_email): void&lt;/span&gt;&lt;/div&gt;&lt;div style=&quot;text-align: left;&quot;&gt;&lt;span style=&quot;background-color: initial;&quot;&gt;+&amp;nbsp;getParent_phone_number(): String&lt;/span&gt;&lt;/div&gt;&lt;div style=&quot;text-align: left;&quot;&gt;&lt;span style=&quot;background-color: initial;&quot;&gt;+&amp;nbsp;setParent_phone_number(String parent_phone_number): String&lt;/span&gt;&lt;/div&gt;" style="text;html=1;align=center;verticalAlign=middle;resizable=0;points=[];autosize=1;strokeColor=none;fillColor=none;" parent="SoPgDfdUoOXwzDtGXs2j-31" vertex="1">
          <mxGeometry x="20" y="270" width="370" height="220" as="geometry" />
        </mxCell>
        <mxCell id="7pPE43i8_QESE7KWQKTa-8" value="" style="endArrow=none;html=1;rounded=0;exitX=0;exitY=0.5;exitDx=0;exitDy=0;entryX=1;entryY=0.5;entryDx=0;entryDy=0;" parent="1" source="SoPgDfdUoOXwzDtGXs2j-31" target="SoPgDfdUoOXwzDtGXs2j-31" edge="1">
          <mxGeometry width="50" height="50" relative="1" as="geometry">
            <mxPoint x="4130" y="2000" as="sourcePoint" />
            <mxPoint x="4550" y="2000" as="targetPoint" />
          </mxGeometry>
        </mxCell>
        <mxCell id="7pPE43i8_QESE7KWQKTa-11" value="use" style="text;html=1;align=center;verticalAlign=middle;resizable=0;points=[];autosize=1;strokeColor=none;fillColor=none;" parent="1" vertex="1">
          <mxGeometry x="3750" y="1745" width="40" height="30" as="geometry" />
        </mxCell>
        <mxCell id="7pPE43i8_QESE7KWQKTa-12" value="use" style="text;html=1;align=center;verticalAlign=middle;resizable=0;points=[];autosize=1;strokeColor=none;fillColor=none;" parent="1" vertex="1">
          <mxGeometry x="3830" y="1925" width="40" height="30" as="geometry" />
        </mxCell>
        <mxCell id="7pPE43i8_QESE7KWQKTa-13" value="use" style="text;html=1;align=center;verticalAlign=middle;resizable=0;points=[];autosize=1;strokeColor=none;fillColor=none;" parent="1" vertex="1">
          <mxGeometry x="3990" y="1820" width="40" height="30" as="geometry" />
        </mxCell>
        <mxCell id="7pPE43i8_QESE7KWQKTa-27" style="edgeStyle=orthogonalEdgeStyle;rounded=0;orthogonalLoop=1;jettySize=auto;html=1;exitX=1;exitY=1;exitDx=0;exitDy=0;entryX=0;entryY=0.25;entryDx=0;entryDy=0;" parent="1" source="7pPE43i8_QESE7KWQKTa-14" target="7pPE43i8_QESE7KWQKTa-24" edge="1">
          <mxGeometry relative="1" as="geometry" />
        </mxCell>
        <mxCell id="7pPE43i8_QESE7KWQKTa-14" value="Signup Controller" style="swimlane;whiteSpace=wrap;html=1;startSize=23;" parent="1" vertex="1">
          <mxGeometry x="4940" y="1975" width="270" height="200" as="geometry" />
        </mxCell>
        <mxCell id="7pPE43i8_QESE7KWQKTa-26" style="edgeStyle=orthogonalEdgeStyle;rounded=0;orthogonalLoop=1;jettySize=auto;html=1;" parent="7pPE43i8_QESE7KWQKTa-14" source="7pPE43i8_QESE7KWQKTa-15" edge="1">
          <mxGeometry relative="1" as="geometry">
            <mxPoint x="380" y="54.99999999999977" as="targetPoint" />
          </mxGeometry>
        </mxCell>
        <mxCell id="7pPE43i8_QESE7KWQKTa-15" value="#&amp;nbsp;processRequest(HttpServletRequest request,&lt;br&gt;&amp;nbsp;HttpServletResponse response): void" style="text;html=1;align=center;verticalAlign=middle;resizable=0;points=[];autosize=1;strokeColor=none;fillColor=none;" parent="7pPE43i8_QESE7KWQKTa-14" vertex="1">
          <mxGeometry y="35" width="270" height="40" as="geometry" />
        </mxCell>
        <mxCell id="7pPE43i8_QESE7KWQKTa-16" value="#&amp;nbsp;doGet(HttpServletRequest request,&lt;br&gt;&amp;nbsp;HttpServletResponse response): void" style="text;html=1;align=center;verticalAlign=middle;resizable=0;points=[];autosize=1;strokeColor=none;fillColor=none;" parent="7pPE43i8_QESE7KWQKTa-14" vertex="1">
          <mxGeometry y="95" width="230" height="40" as="geometry" />
        </mxCell>
        <mxCell id="7pPE43i8_QESE7KWQKTa-17" value="#&amp;nbsp;doPost(HttpServletRequest request,&lt;br&gt;&amp;nbsp;HttpServletResponse response): void" style="text;html=1;align=center;verticalAlign=middle;resizable=0;points=[];autosize=1;strokeColor=none;fillColor=none;" parent="7pPE43i8_QESE7KWQKTa-14" vertex="1">
          <mxGeometry y="145" width="230" height="40" as="geometry" />
        </mxCell>
        <mxCell id="7pPE43i8_QESE7KWQKTa-18" value="DBContext" style="swimlane;whiteSpace=wrap;html=1;" parent="1" vertex="1">
          <mxGeometry x="5310" y="2345" width="200" height="120" as="geometry" />
        </mxCell>
        <mxCell id="7pPE43i8_QESE7KWQKTa-19" value="-&amp;nbsp;connection: Connection" style="text;html=1;align=center;verticalAlign=middle;resizable=0;points=[];autosize=1;strokeColor=none;fillColor=none;" parent="7pPE43i8_QESE7KWQKTa-18" vertex="1">
          <mxGeometry x="10" y="30" width="160" height="30" as="geometry" />
        </mxCell>
        <mxCell id="7pPE43i8_QESE7KWQKTa-20" value="+&amp;nbsp;DBContext()" style="text;html=1;align=center;verticalAlign=middle;resizable=0;points=[];autosize=1;strokeColor=none;fillColor=none;" parent="7pPE43i8_QESE7KWQKTa-18" vertex="1">
          <mxGeometry x="35" y="70" width="100" height="30" as="geometry" />
        </mxCell>
        <mxCell id="7pPE43i8_QESE7KWQKTa-21" value="" style="endArrow=none;html=1;rounded=0;exitX=0;exitY=0.5;exitDx=0;exitDy=0;entryX=1;entryY=0.5;entryDx=0;entryDy=0;" parent="1" source="7pPE43i8_QESE7KWQKTa-18" target="7pPE43i8_QESE7KWQKTa-18" edge="1">
          <mxGeometry width="50" height="50" relative="1" as="geometry">
            <mxPoint x="5455" y="2455" as="sourcePoint" />
            <mxPoint x="5505" y="2405" as="targetPoint" />
          </mxGeometry>
        </mxCell>
        <mxCell id="7pPE43i8_QESE7KWQKTa-30" style="edgeStyle=orthogonalEdgeStyle;rounded=0;orthogonalLoop=1;jettySize=auto;html=1;exitX=0.75;exitY=1;exitDx=0;exitDy=0;entryX=0.75;entryY=0;entryDx=0;entryDy=0;" parent="1" source="7pPE43i8_QESE7KWQKTa-22" target="7pPE43i8_QESE7KWQKTa-18" edge="1">
          <mxGeometry relative="1" as="geometry" />
        </mxCell>
        <mxCell id="vnlTYIVXVwYV36SSMtpx-10" style="edgeStyle=orthogonalEdgeStyle;rounded=0;orthogonalLoop=1;jettySize=auto;html=1;exitX=0.75;exitY=0;exitDx=0;exitDy=0;entryX=0.274;entryY=1.01;entryDx=0;entryDy=0;entryPerimeter=0;" parent="1" source="7pPE43i8_QESE7KWQKTa-22" target="7pPE43i8_QESE7KWQKTa-35" edge="1">
          <mxGeometry relative="1" as="geometry" />
        </mxCell>
        <mxCell id="7pPE43i8_QESE7KWQKTa-22" value="AccountDBContext" style="swimlane;whiteSpace=wrap;html=1;" parent="1" vertex="1">
          <mxGeometry x="5320" y="1975" width="175" height="125" as="geometry" />
        </mxCell>
        <mxCell id="7pPE43i8_QESE7KWQKTa-23" value="&lt;div style=&quot;text-align: left;&quot;&gt;&lt;span style=&quot;background-color: initial;&quot;&gt;+ checkAccountExisted&lt;/span&gt;&lt;/div&gt;&lt;div style=&quot;text-align: left;&quot;&gt;&lt;span style=&quot;background-color: initial;&quot;&gt;(String username)&amp;nbsp;: Account&lt;/span&gt;&lt;/div&gt;&lt;div style=&quot;text-align: left;&quot;&gt;&lt;span style=&quot;background-color: initial;&quot;&gt;+ signup(String username,&lt;/span&gt;&lt;/div&gt;&lt;div style=&quot;text-align: left;&quot;&gt;&lt;span style=&quot;background-color: initial;&quot;&gt;String password)&lt;/span&gt;&lt;/div&gt;" style="text;html=1;align=center;verticalAlign=middle;resizable=0;points=[];autosize=1;strokeColor=none;fillColor=none;" parent="7pPE43i8_QESE7KWQKTa-22" vertex="1">
          <mxGeometry x="5" y="40" width="170" height="70" as="geometry" />
        </mxCell>
        <mxCell id="7pPE43i8_QESE7KWQKTa-29" style="edgeStyle=orthogonalEdgeStyle;rounded=0;orthogonalLoop=1;jettySize=auto;html=1;exitX=0.75;exitY=1;exitDx=0;exitDy=0;entryX=0.25;entryY=0;entryDx=0;entryDy=0;" parent="1" source="7pPE43i8_QESE7KWQKTa-24" target="7pPE43i8_QESE7KWQKTa-18" edge="1">
          <mxGeometry relative="1" as="geometry" />
        </mxCell>
        <mxCell id="7pPE43i8_QESE7KWQKTa-43" style="edgeStyle=orthogonalEdgeStyle;rounded=0;orthogonalLoop=1;jettySize=auto;html=1;exitX=1;exitY=0.5;exitDx=0;exitDy=0;" parent="1" source="7pPE43i8_QESE7KWQKTa-24" edge="1">
          <mxGeometry relative="1" as="geometry">
            <mxPoint x="5610" y="2200" as="targetPoint" />
          </mxGeometry>
        </mxCell>
        <mxCell id="7pPE43i8_QESE7KWQKTa-24" value="UserDBContext" style="swimlane;whiteSpace=wrap;html=1;" parent="1" vertex="1">
          <mxGeometry x="5240" y="2150" width="160" height="100" as="geometry" />
        </mxCell>
        <mxCell id="7pPE43i8_QESE7KWQKTa-25" value="+&amp;nbsp;getUserByUsername&lt;br&gt;(String username): User" style="text;html=1;align=center;verticalAlign=middle;resizable=0;points=[];autosize=1;strokeColor=none;fillColor=none;" parent="7pPE43i8_QESE7KWQKTa-24" vertex="1">
          <mxGeometry y="40" width="150" height="40" as="geometry" />
        </mxCell>
        <mxCell id="7pPE43i8_QESE7KWQKTa-33" style="edgeStyle=orthogonalEdgeStyle;rounded=0;orthogonalLoop=1;jettySize=auto;html=1;exitX=0.5;exitY=1;exitDx=0;exitDy=0;" parent="1" source="7pPE43i8_QESE7KWQKTa-31" target="7pPE43i8_QESE7KWQKTa-22" edge="1">
          <mxGeometry relative="1" as="geometry" />
        </mxCell>
        <mxCell id="7pPE43i8_QESE7KWQKTa-31" value="securityProcessorCore" style="swimlane;whiteSpace=wrap;html=1;" parent="1" vertex="1">
          <mxGeometry x="5155" y="1755" width="175" height="125" as="geometry" />
        </mxCell>
        <mxCell id="7pPE43i8_QESE7KWQKTa-32" value="&lt;div style=&quot;text-align: left;&quot;&gt;&lt;span style=&quot;background-color: initial;&quot;&gt;+&amp;nbsp;&lt;/span&gt;&lt;span style=&quot;background-color: initial;&quot;&gt;SHA1EncodePassword&lt;/span&gt;&lt;/div&gt;&lt;div style=&quot;text-align: left;&quot;&gt;(String inputPassword)&lt;span style=&quot;background-color: initial;&quot;&gt;: String&lt;/span&gt;&lt;/div&gt;&lt;div style=&quot;text-align: left;&quot;&gt;&lt;span style=&quot;background-color: initial;&quot;&gt;+&amp;nbsp;&lt;/span&gt;&lt;span style=&quot;background-color: initial;&quot;&gt;md5EncodePassword&lt;/span&gt;&lt;/div&gt;&lt;div style=&quot;text-align: left;&quot;&gt;(String inputPassword): void&lt;/div&gt;" style="text;html=1;align=center;verticalAlign=middle;resizable=0;points=[];autosize=1;strokeColor=none;fillColor=none;" parent="7pPE43i8_QESE7KWQKTa-31" vertex="1">
          <mxGeometry x="-5" y="37.5" width="180" height="70" as="geometry" />
        </mxCell>
        <mxCell id="7pPE43i8_QESE7KWQKTa-34" value="Account" style="swimlane;whiteSpace=wrap;html=1;startSize=23;" parent="1" vertex="1">
          <mxGeometry x="5370" y="1575" width="300" height="250" as="geometry" />
        </mxCell>
        <mxCell id="7pPE43i8_QESE7KWQKTa-37" value="-&amp;nbsp;username: String&lt;br&gt;- password: String&lt;br&gt;-classify_account: String" style="text;html=1;align=left;verticalAlign=middle;resizable=0;points=[];autosize=1;strokeColor=none;fillColor=none;" parent="7pPE43i8_QESE7KWQKTa-34" vertex="1">
          <mxGeometry x="20" y="40" width="150" height="60" as="geometry" />
        </mxCell>
        <mxCell id="7pPE43i8_QESE7KWQKTa-35" value="&lt;div style=&quot;text-align: left;&quot;&gt;&lt;span style=&quot;background-color: initial;&quot;&gt;+ getUsername() : String&lt;/span&gt;&lt;/div&gt;&lt;div style=&quot;text-align: left;&quot;&gt;&lt;span style=&quot;background-color: initial;&quot;&gt;+ setUsername(String username): void&lt;/span&gt;&lt;/div&gt;&lt;div style=&quot;text-align: left;&quot;&gt;&lt;span style=&quot;background-color: initial;&quot;&gt;+ getPassword(): String&lt;/span&gt;&lt;/div&gt;&lt;div style=&quot;text-align: left;&quot;&gt;&lt;span style=&quot;background-color: initial;&quot;&gt;+ setPassword(String password): void&lt;/span&gt;&lt;/div&gt;&lt;div style=&quot;text-align: left;&quot;&gt;&lt;span style=&quot;background-color: initial;&quot;&gt;+ getClassify_account(): String&lt;/span&gt;&lt;/div&gt;&lt;div style=&quot;text-align: left;&quot;&gt;&lt;span style=&quot;background-color: initial;&quot;&gt;+ setClassify_account(String classify_account): void&lt;/span&gt;&lt;/div&gt;&lt;div style=&quot;text-align: left;&quot;&gt;&lt;span style=&quot;background-color: initial;&quot;&gt;+ getRoles(): ArrayList&amp;lt;Role&amp;gt;&lt;/span&gt;&lt;/div&gt;&lt;div style=&quot;text-align: left;&quot;&gt;&lt;span style=&quot;background-color: initial;&quot;&gt;&amp;nbsp;&lt;/span&gt;&lt;/div&gt;" style="text;html=1;align=center;verticalAlign=middle;resizable=0;points=[];autosize=1;strokeColor=none;fillColor=none;" parent="7pPE43i8_QESE7KWQKTa-34" vertex="1">
          <mxGeometry y="120" width="300" height="130" as="geometry" />
        </mxCell>
        <mxCell id="7pPE43i8_QESE7KWQKTa-36" value="" style="endArrow=none;html=1;rounded=0;exitX=0.005;exitY=0.019;exitDx=0;exitDy=0;exitPerimeter=0;entryX=0.996;entryY=0.034;entryDx=0;entryDy=0;entryPerimeter=0;" parent="7pPE43i8_QESE7KWQKTa-34" source="7pPE43i8_QESE7KWQKTa-35" target="7pPE43i8_QESE7KWQKTa-35" edge="1">
          <mxGeometry width="50" height="50" relative="1" as="geometry">
            <mxPoint x="120" y="200" as="sourcePoint" />
            <mxPoint x="170" y="150" as="targetPoint" />
          </mxGeometry>
        </mxCell>
        <mxCell id="7pPE43i8_QESE7KWQKTa-38" value="User" style="swimlane;whiteSpace=wrap;html=1;" parent="1" vertex="1">
          <mxGeometry x="5610" y="2165" width="420" height="389" as="geometry" />
        </mxCell>
        <mxCell id="7pPE43i8_QESE7KWQKTa-39" value="-&amp;nbsp;user_id: int&lt;br&gt;-&amp;nbsp;full_name: String&lt;br&gt;-&amp;nbsp;dob: Date&lt;br&gt;-&amp;nbsp;gender: boolean&lt;br&gt;- parent_name: String&lt;br&gt;- parent_email: String&lt;br&gt;-&amp;nbsp;parent_phone_number:&amp;nbsp;" style="text;html=1;align=left;verticalAlign=middle;resizable=0;points=[];autosize=1;strokeColor=none;fillColor=none;" parent="7pPE43i8_QESE7KWQKTa-38" vertex="1">
          <mxGeometry x="20" y="35" width="160" height="110" as="geometry" />
        </mxCell>
        <mxCell id="7pPE43i8_QESE7KWQKTa-40" value="&lt;div style=&quot;text-align: left;&quot;&gt;&lt;span style=&quot;background-color: initial;&quot;&gt;+ getUser_id(): String&lt;/span&gt;&lt;/div&gt;&lt;div style=&quot;text-align: left;&quot;&gt;&lt;span style=&quot;background-color: initial;&quot;&gt;+&amp;nbsp;getFull_name(): String&lt;/span&gt;&lt;/div&gt;&lt;div style=&quot;text-align: left;&quot;&gt;&lt;span style=&quot;background-color: initial;&quot;&gt;+&amp;nbsp;setUser_id(int user_id): void&lt;/span&gt;&lt;/div&gt;&lt;div style=&quot;text-align: left;&quot;&gt;&lt;span style=&quot;background-color: initial;&quot;&gt;+&amp;nbsp;setFull_name(String full_name): void&lt;/span&gt;&lt;/div&gt;&lt;div style=&quot;text-align: left;&quot;&gt;&lt;span style=&quot;background-color: initial;&quot;&gt;+ getDob(): Date&lt;/span&gt;&lt;/div&gt;&lt;div style=&quot;text-align: left;&quot;&gt;&lt;span style=&quot;background-color: initial;&quot;&gt;+&amp;nbsp;setDob(Date dob): void&lt;/span&gt;&lt;/div&gt;&lt;div style=&quot;text-align: left;&quot;&gt;&lt;span style=&quot;background-color: initial;&quot;&gt;+ getGender(): boolean&lt;/span&gt;&lt;/div&gt;&lt;div style=&quot;text-align: left;&quot;&gt;&lt;span style=&quot;background-color: initial;&quot;&gt;+&amp;nbsp;setGender(boolean gender): void&lt;/span&gt;&lt;/div&gt;&lt;div style=&quot;text-align: left;&quot;&gt;&lt;span style=&quot;background-color: initial;&quot;&gt;+&amp;nbsp;getParent_name(): String&lt;/span&gt;&lt;/div&gt;&lt;div style=&quot;text-align: left;&quot;&gt;&lt;span style=&quot;background-color: initial;&quot;&gt;+&amp;nbsp;setParent_name(String parent_name): void&lt;/span&gt;&lt;/div&gt;&lt;div style=&quot;text-align: left;&quot;&gt;&lt;span style=&quot;background-color: initial;&quot;&gt;+&amp;nbsp;getParent_email(): String&lt;/span&gt;&lt;/div&gt;&lt;div style=&quot;text-align: left;&quot;&gt;&lt;span style=&quot;background-color: initial;&quot;&gt;+&amp;nbsp;setParent_email(String parent_email): void&lt;/span&gt;&lt;/div&gt;&lt;div style=&quot;text-align: left;&quot;&gt;&lt;span style=&quot;background-color: initial;&quot;&gt;+&amp;nbsp;getParent_phone_number(): String&lt;/span&gt;&lt;/div&gt;&lt;div style=&quot;text-align: left;&quot;&gt;&lt;span style=&quot;background-color: initial;&quot;&gt;+&amp;nbsp;setParent_phone_number(String parent_phone_number): String&lt;/span&gt;&lt;/div&gt;" style="text;html=1;align=center;verticalAlign=middle;resizable=0;points=[];autosize=1;strokeColor=none;fillColor=none;" parent="7pPE43i8_QESE7KWQKTa-38" vertex="1">
          <mxGeometry x="10" y="170" width="370" height="220" as="geometry" />
        </mxCell>
        <mxCell id="7pPE43i8_QESE7KWQKTa-41" value="" style="endArrow=none;html=1;rounded=0;" parent="1" edge="1">
          <mxGeometry width="50" height="50" relative="1" as="geometry">
            <mxPoint x="5610" y="2335" as="sourcePoint" />
            <mxPoint x="6030" y="2335" as="targetPoint" />
            <Array as="points">
              <mxPoint x="5810" y="2335" />
            </Array>
          </mxGeometry>
        </mxCell>
        <mxCell id="7pPE43i8_QESE7KWQKTa-44" value="Use" style="text;html=1;align=center;verticalAlign=middle;resizable=0;points=[];autosize=1;strokeColor=none;fillColor=none;" parent="1" vertex="1">
          <mxGeometry x="5240" y="2005" width="40" height="30" as="geometry" />
        </mxCell>
        <mxCell id="7pPE43i8_QESE7KWQKTa-45" value="Use" style="text;html=1;align=center;verticalAlign=middle;resizable=0;points=[];autosize=1;strokeColor=none;fillColor=none;" parent="1" vertex="1">
          <mxGeometry x="5205" y="2150" width="40" height="30" as="geometry" />
        </mxCell>
        <mxCell id="7pPE43i8_QESE7KWQKTa-46" value="Use" style="text;html=1;align=center;verticalAlign=middle;resizable=0;points=[];autosize=1;strokeColor=none;fillColor=none;" parent="1" vertex="1">
          <mxGeometry x="5260" y="1902.5" width="40" height="30" as="geometry" />
        </mxCell>
        <mxCell id="7pPE43i8_QESE7KWQKTa-60" style="edgeStyle=orthogonalEdgeStyle;rounded=0;orthogonalLoop=1;jettySize=auto;html=1;exitX=0.5;exitY=1;exitDx=0;exitDy=0;entryX=0.5;entryY=0;entryDx=0;entryDy=0;" parent="1" source="7pPE43i8_QESE7KWQKTa-47" target="7pPE43i8_QESE7KWQKTa-52" edge="1">
          <mxGeometry relative="1" as="geometry" />
        </mxCell>
        <mxCell id="vnlTYIVXVwYV36SSMtpx-11" style="edgeStyle=orthogonalEdgeStyle;rounded=0;orthogonalLoop=1;jettySize=auto;html=1;exitX=1;exitY=0.75;exitDx=0;exitDy=0;" parent="1" source="7pPE43i8_QESE7KWQKTa-47" edge="1">
          <mxGeometry relative="1" as="geometry">
            <mxPoint x="6030" y="2487" as="targetPoint" />
            <Array as="points">
              <mxPoint x="6080" y="1585" />
              <mxPoint x="6080" y="2487" />
            </Array>
          </mxGeometry>
        </mxCell>
        <mxCell id="7pPE43i8_QESE7KWQKTa-47" value="Fillin4Controller" style="swimlane;whiteSpace=wrap;html=1;startSize=23;" parent="1" vertex="1">
          <mxGeometry x="5720" y="1435" width="270" height="200" as="geometry" />
        </mxCell>
        <mxCell id="7pPE43i8_QESE7KWQKTa-49" value="#&amp;nbsp;processRequest(HttpServletRequest request,&lt;br&gt;&amp;nbsp;HttpServletResponse response): void" style="text;html=1;align=center;verticalAlign=middle;resizable=0;points=[];autosize=1;strokeColor=none;fillColor=none;" parent="7pPE43i8_QESE7KWQKTa-47" vertex="1">
          <mxGeometry y="35" width="270" height="40" as="geometry" />
        </mxCell>
        <mxCell id="7pPE43i8_QESE7KWQKTa-50" value="#&amp;nbsp;doGet(HttpServletRequest request,&lt;br&gt;&amp;nbsp;HttpServletResponse response): void" style="text;html=1;align=center;verticalAlign=middle;resizable=0;points=[];autosize=1;strokeColor=none;fillColor=none;" parent="7pPE43i8_QESE7KWQKTa-47" vertex="1">
          <mxGeometry y="95" width="230" height="40" as="geometry" />
        </mxCell>
        <mxCell id="7pPE43i8_QESE7KWQKTa-51" value="#&amp;nbsp;doPost(HttpServletRequest request,&lt;br&gt;&amp;nbsp;HttpServletResponse response): void" style="text;html=1;align=center;verticalAlign=middle;resizable=0;points=[];autosize=1;strokeColor=none;fillColor=none;" parent="7pPE43i8_QESE7KWQKTa-47" vertex="1">
          <mxGeometry y="145" width="230" height="40" as="geometry" />
        </mxCell>
        <mxCell id="7pPE43i8_QESE7KWQKTa-61" style="edgeStyle=orthogonalEdgeStyle;rounded=0;orthogonalLoop=1;jettySize=auto;html=1;exitX=0.5;exitY=1;exitDx=0;exitDy=0;entryX=0.5;entryY=0;entryDx=0;entryDy=0;" parent="1" source="7pPE43i8_QESE7KWQKTa-52" target="7pPE43i8_QESE7KWQKTa-56" edge="1">
          <mxGeometry relative="1" as="geometry" />
        </mxCell>
        <mxCell id="7pPE43i8_QESE7KWQKTa-52" value="enterMailController" style="swimlane;whiteSpace=wrap;html=1;startSize=23;" parent="1" vertex="1">
          <mxGeometry x="5720" y="1680" width="270" height="200" as="geometry" />
        </mxCell>
        <mxCell id="7pPE43i8_QESE7KWQKTa-53" value="#&amp;nbsp;processRequest(HttpServletRequest request,&lt;br&gt;&amp;nbsp;HttpServletResponse response): void" style="text;html=1;align=center;verticalAlign=middle;resizable=0;points=[];autosize=1;strokeColor=none;fillColor=none;" parent="7pPE43i8_QESE7KWQKTa-52" vertex="1">
          <mxGeometry y="35" width="270" height="40" as="geometry" />
        </mxCell>
        <mxCell id="7pPE43i8_QESE7KWQKTa-54" value="#&amp;nbsp;doGet(HttpServletRequest request,&lt;br&gt;&amp;nbsp;HttpServletResponse response): void" style="text;html=1;align=center;verticalAlign=middle;resizable=0;points=[];autosize=1;strokeColor=none;fillColor=none;" parent="7pPE43i8_QESE7KWQKTa-52" vertex="1">
          <mxGeometry y="95" width="230" height="40" as="geometry" />
        </mxCell>
        <mxCell id="7pPE43i8_QESE7KWQKTa-55" value="#&amp;nbsp;doPost(HttpServletRequest request,&lt;br&gt;&amp;nbsp;HttpServletResponse response): void" style="text;html=1;align=center;verticalAlign=middle;resizable=0;points=[];autosize=1;strokeColor=none;fillColor=none;" parent="7pPE43i8_QESE7KWQKTa-52" vertex="1">
          <mxGeometry y="145" width="230" height="40" as="geometry" />
        </mxCell>
        <mxCell id="vnlTYIVXVwYV36SSMtpx-7" style="edgeStyle=orthogonalEdgeStyle;rounded=0;orthogonalLoop=1;jettySize=auto;html=1;exitX=0.25;exitY=1;exitDx=0;exitDy=0;entryX=1.006;entryY=0.148;entryDx=0;entryDy=0;entryPerimeter=0;" parent="1" source="7pPE43i8_QESE7KWQKTa-56" target="7pPE43i8_QESE7KWQKTa-24" edge="1">
          <mxGeometry relative="1" as="geometry" />
        </mxCell>
        <mxCell id="7pPE43i8_QESE7KWQKTa-56" value="verifyCodeController" style="swimlane;whiteSpace=wrap;html=1;startSize=23;" parent="1" vertex="1">
          <mxGeometry x="5720" y="1930" width="270" height="200" as="geometry" />
        </mxCell>
        <mxCell id="7pPE43i8_QESE7KWQKTa-57" value="#&amp;nbsp;processRequest(HttpServletRequest request,&lt;br&gt;&amp;nbsp;HttpServletResponse response): void" style="text;html=1;align=center;verticalAlign=middle;resizable=0;points=[];autosize=1;strokeColor=none;fillColor=none;" parent="7pPE43i8_QESE7KWQKTa-56" vertex="1">
          <mxGeometry y="35" width="270" height="40" as="geometry" />
        </mxCell>
        <mxCell id="7pPE43i8_QESE7KWQKTa-58" value="#&amp;nbsp;doGet(HttpServletRequest request,&lt;br&gt;&amp;nbsp;HttpServletResponse response): void" style="text;html=1;align=center;verticalAlign=middle;resizable=0;points=[];autosize=1;strokeColor=none;fillColor=none;" parent="7pPE43i8_QESE7KWQKTa-56" vertex="1">
          <mxGeometry y="95" width="230" height="40" as="geometry" />
        </mxCell>
        <mxCell id="7pPE43i8_QESE7KWQKTa-59" value="#&amp;nbsp;doPost(HttpServletRequest request,&lt;br&gt;&amp;nbsp;HttpServletResponse response): void" style="text;html=1;align=center;verticalAlign=middle;resizable=0;points=[];autosize=1;strokeColor=none;fillColor=none;" parent="7pPE43i8_QESE7KWQKTa-56" vertex="1">
          <mxGeometry y="145" width="230" height="40" as="geometry" />
        </mxCell>
        <mxCell id="vnlTYIVXVwYV36SSMtpx-6" value="Use" style="text;html=1;align=center;verticalAlign=middle;resizable=0;points=[];autosize=1;strokeColor=none;fillColor=none;" parent="1" vertex="1">
          <mxGeometry x="5580" y="2030" width="40" height="30" as="geometry" />
        </mxCell>
        <mxCell id="vnlTYIVXVwYV36SSMtpx-8" value="Use" style="text;html=1;align=center;verticalAlign=middle;resizable=0;points=[];autosize=1;strokeColor=none;fillColor=none;" parent="1" vertex="1">
          <mxGeometry x="5680" y="2140" width="40" height="30" as="geometry" />
        </mxCell>
        <mxCell id="vnlTYIVXVwYV36SSMtpx-9" value="" style="endArrow=classic;html=1;rounded=0;entryX=0.998;entryY=0.506;entryDx=0;entryDy=0;entryPerimeter=0;" parent="1" target="7pPE43i8_QESE7KWQKTa-23" edge="1">
          <mxGeometry width="50" height="50" relative="1" as="geometry">
            <mxPoint x="5720" y="2050" as="sourcePoint" />
            <mxPoint x="5720" y="2065" as="targetPoint" />
          </mxGeometry>
        </mxCell>
        <mxCell id="vnlTYIVXVwYV36SSMtpx-31" style="edgeStyle=orthogonalEdgeStyle;rounded=0;orthogonalLoop=1;jettySize=auto;html=1;exitX=1;exitY=0.5;exitDx=0;exitDy=0;entryX=-0.004;entryY=0.109;entryDx=0;entryDy=0;entryPerimeter=0;" parent="1" source="vnlTYIVXVwYV36SSMtpx-12" target="vnlTYIVXVwYV36SSMtpx-25" edge="1">
          <mxGeometry relative="1" as="geometry" />
        </mxCell>
        <mxCell id="vnlTYIVXVwYV36SSMtpx-12" value="ForgetPassword" style="swimlane;whiteSpace=wrap;html=1;startSize=23;" parent="1" vertex="1">
          <mxGeometry x="5170" y="660" width="270" height="200" as="geometry" />
        </mxCell>
        <mxCell id="vnlTYIVXVwYV36SSMtpx-14" value="#&amp;nbsp;processRequest(HttpServletRequest request,&lt;br&gt;&amp;nbsp;HttpServletResponse response): void" style="text;html=1;align=center;verticalAlign=middle;resizable=0;points=[];autosize=1;strokeColor=none;fillColor=none;" parent="vnlTYIVXVwYV36SSMtpx-12" vertex="1">
          <mxGeometry y="35" width="270" height="40" as="geometry" />
        </mxCell>
        <mxCell id="vnlTYIVXVwYV36SSMtpx-15" value="#&amp;nbsp;doGet(HttpServletRequest request,&lt;br&gt;&amp;nbsp;HttpServletResponse response): void" style="text;html=1;align=center;verticalAlign=middle;resizable=0;points=[];autosize=1;strokeColor=none;fillColor=none;" parent="vnlTYIVXVwYV36SSMtpx-12" vertex="1">
          <mxGeometry y="95" width="230" height="40" as="geometry" />
        </mxCell>
        <mxCell id="vnlTYIVXVwYV36SSMtpx-16" value="#&amp;nbsp;doPost(HttpServletRequest request,&lt;br&gt;&amp;nbsp;HttpServletResponse response): void" style="text;html=1;align=center;verticalAlign=middle;resizable=0;points=[];autosize=1;strokeColor=none;fillColor=none;" parent="vnlTYIVXVwYV36SSMtpx-12" vertex="1">
          <mxGeometry y="145" width="230" height="40" as="geometry" />
        </mxCell>
        <mxCell id="vnlTYIVXVwYV36SSMtpx-39" style="edgeStyle=orthogonalEdgeStyle;rounded=0;orthogonalLoop=1;jettySize=auto;html=1;exitX=0.25;exitY=0;exitDx=0;exitDy=0;entryX=0.25;entryY=1;entryDx=0;entryDy=0;" parent="1" source="vnlTYIVXVwYV36SSMtpx-17" target="vnlTYIVXVwYV36SSMtpx-37" edge="1">
          <mxGeometry relative="1" as="geometry" />
        </mxCell>
        <mxCell id="vnlTYIVXVwYV36SSMtpx-17" value="ChangePassword" style="swimlane;whiteSpace=wrap;html=1;startSize=23;" parent="1" vertex="1">
          <mxGeometry x="5880" y="800" width="270" height="200" as="geometry" />
        </mxCell>
        <mxCell id="vnlTYIVXVwYV36SSMtpx-18" value="#&amp;nbsp;processRequest(HttpServletRequest request,&lt;br&gt;&amp;nbsp;HttpServletResponse response): void" style="text;html=1;align=center;verticalAlign=middle;resizable=0;points=[];autosize=1;strokeColor=none;fillColor=none;" parent="vnlTYIVXVwYV36SSMtpx-17" vertex="1">
          <mxGeometry y="35" width="270" height="40" as="geometry" />
        </mxCell>
        <mxCell id="vnlTYIVXVwYV36SSMtpx-19" value="#&amp;nbsp;doGet(HttpServletRequest request,&lt;br&gt;&amp;nbsp;HttpServletResponse response): void" style="text;html=1;align=center;verticalAlign=middle;resizable=0;points=[];autosize=1;strokeColor=none;fillColor=none;" parent="vnlTYIVXVwYV36SSMtpx-17" vertex="1">
          <mxGeometry y="95" width="230" height="40" as="geometry" />
        </mxCell>
        <mxCell id="vnlTYIVXVwYV36SSMtpx-20" value="#&amp;nbsp;doPost(HttpServletRequest request,&lt;br&gt;&amp;nbsp;HttpServletResponse response): void" style="text;html=1;align=center;verticalAlign=middle;resizable=0;points=[];autosize=1;strokeColor=none;fillColor=none;" parent="vnlTYIVXVwYV36SSMtpx-17" vertex="1">
          <mxGeometry y="145" width="230" height="40" as="geometry" />
        </mxCell>
        <mxCell id="vnlTYIVXVwYV36SSMtpx-21" style="edgeStyle=orthogonalEdgeStyle;rounded=0;orthogonalLoop=1;jettySize=auto;html=1;exitX=0.5;exitY=1;exitDx=0;exitDy=0;entryX=0.5;entryY=0;entryDx=0;entryDy=0;" parent="1" source="vnlTYIVXVwYV36SSMtpx-22" target="vnlTYIVXVwYV36SSMtpx-26" edge="1">
          <mxGeometry relative="1" as="geometry" />
        </mxCell>
        <mxCell id="vnlTYIVXVwYV36SSMtpx-22" value="enterMailController" style="swimlane;whiteSpace=wrap;html=1;startSize=23;" parent="1" vertex="1">
          <mxGeometry x="5525" y="610" width="270" height="200" as="geometry" />
        </mxCell>
        <mxCell id="vnlTYIVXVwYV36SSMtpx-23" value="#&amp;nbsp;processRequest(HttpServletRequest request,&lt;br&gt;&amp;nbsp;HttpServletResponse response): void" style="text;html=1;align=center;verticalAlign=middle;resizable=0;points=[];autosize=1;strokeColor=none;fillColor=none;" parent="vnlTYIVXVwYV36SSMtpx-22" vertex="1">
          <mxGeometry y="35" width="270" height="40" as="geometry" />
        </mxCell>
        <mxCell id="vnlTYIVXVwYV36SSMtpx-24" value="#&amp;nbsp;doGet(HttpServletRequest request,&lt;br&gt;&amp;nbsp;HttpServletResponse response): void" style="text;html=1;align=center;verticalAlign=middle;resizable=0;points=[];autosize=1;strokeColor=none;fillColor=none;" parent="vnlTYIVXVwYV36SSMtpx-22" vertex="1">
          <mxGeometry y="95" width="230" height="40" as="geometry" />
        </mxCell>
        <mxCell id="vnlTYIVXVwYV36SSMtpx-25" value="#&amp;nbsp;doPost(HttpServletRequest request,&lt;br&gt;&amp;nbsp;HttpServletResponse response): void" style="text;html=1;align=center;verticalAlign=middle;resizable=0;points=[];autosize=1;strokeColor=none;fillColor=none;" parent="vnlTYIVXVwYV36SSMtpx-22" vertex="1">
          <mxGeometry y="145" width="230" height="40" as="geometry" />
        </mxCell>
        <mxCell id="vnlTYIVXVwYV36SSMtpx-26" value="verifyCodeController" style="swimlane;whiteSpace=wrap;html=1;startSize=23;" parent="1" vertex="1">
          <mxGeometry x="5525" y="870" width="270" height="200" as="geometry" />
        </mxCell>
        <mxCell id="vnlTYIVXVwYV36SSMtpx-27" value="#&amp;nbsp;processRequest(HttpServletRequest request,&lt;br&gt;&amp;nbsp;HttpServletResponse response): void" style="text;html=1;align=center;verticalAlign=middle;resizable=0;points=[];autosize=1;strokeColor=none;fillColor=none;" parent="vnlTYIVXVwYV36SSMtpx-26" vertex="1">
          <mxGeometry y="35" width="270" height="40" as="geometry" />
        </mxCell>
        <mxCell id="vnlTYIVXVwYV36SSMtpx-28" value="#&amp;nbsp;doGet(HttpServletRequest request,&lt;br&gt;&amp;nbsp;HttpServletResponse response): void" style="text;html=1;align=center;verticalAlign=middle;resizable=0;points=[];autosize=1;strokeColor=none;fillColor=none;" parent="vnlTYIVXVwYV36SSMtpx-26" vertex="1">
          <mxGeometry y="95" width="230" height="40" as="geometry" />
        </mxCell>
        <mxCell id="vnlTYIVXVwYV36SSMtpx-29" value="#&amp;nbsp;doPost(HttpServletRequest request,&lt;br&gt;&amp;nbsp;HttpServletResponse response): void" style="text;html=1;align=center;verticalAlign=middle;resizable=0;points=[];autosize=1;strokeColor=none;fillColor=none;" parent="vnlTYIVXVwYV36SSMtpx-26" vertex="1">
          <mxGeometry y="145" width="230" height="40" as="geometry" />
        </mxCell>
        <mxCell id="vnlTYIVXVwYV36SSMtpx-32" style="edgeStyle=orthogonalEdgeStyle;rounded=0;orthogonalLoop=1;jettySize=auto;html=1;entryX=-0.002;entryY=0.652;entryDx=0;entryDy=0;entryPerimeter=0;" parent="1" source="vnlTYIVXVwYV36SSMtpx-27" target="vnlTYIVXVwYV36SSMtpx-19" edge="1">
          <mxGeometry relative="1" as="geometry" />
        </mxCell>
        <mxCell id="vnlTYIVXVwYV36SSMtpx-33" value="Account" style="swimlane;whiteSpace=wrap;html=1;startSize=23;" parent="1" vertex="1">
          <mxGeometry x="5880" y="305" width="300" height="250" as="geometry" />
        </mxCell>
        <mxCell id="vnlTYIVXVwYV36SSMtpx-34" value="&lt;div style=&quot;text-align: left;&quot;&gt;&lt;span style=&quot;background-color: initial;&quot;&gt;+ getUsername() : String&lt;/span&gt;&lt;/div&gt;&lt;div style=&quot;text-align: left;&quot;&gt;&lt;span style=&quot;background-color: initial;&quot;&gt;+ setUsername(String username): void&lt;/span&gt;&lt;/div&gt;&lt;div style=&quot;text-align: left;&quot;&gt;&lt;span style=&quot;background-color: initial;&quot;&gt;+ getPassword(): String&lt;/span&gt;&lt;/div&gt;&lt;div style=&quot;text-align: left;&quot;&gt;&lt;span style=&quot;background-color: initial;&quot;&gt;+ setPassword(String password): void&lt;/span&gt;&lt;/div&gt;&lt;div style=&quot;text-align: left;&quot;&gt;&lt;span style=&quot;background-color: initial;&quot;&gt;+ getClassify_account(): String&lt;/span&gt;&lt;/div&gt;&lt;div style=&quot;text-align: left;&quot;&gt;&lt;span style=&quot;background-color: initial;&quot;&gt;+ setClassify_account(String classify_account): void&lt;/span&gt;&lt;/div&gt;&lt;div style=&quot;text-align: left;&quot;&gt;&lt;span style=&quot;background-color: initial;&quot;&gt;+ getRoles(): ArrayList&amp;lt;Role&amp;gt;&lt;/span&gt;&lt;/div&gt;&lt;div style=&quot;text-align: left;&quot;&gt;&lt;span style=&quot;background-color: initial;&quot;&gt;&amp;nbsp;&lt;/span&gt;&lt;/div&gt;" style="text;html=1;align=center;verticalAlign=middle;resizable=0;points=[];autosize=1;strokeColor=none;fillColor=none;" parent="vnlTYIVXVwYV36SSMtpx-33" vertex="1">
          <mxGeometry y="120" width="300" height="130" as="geometry" />
        </mxCell>
        <mxCell id="vnlTYIVXVwYV36SSMtpx-35" value="" style="endArrow=none;html=1;rounded=0;exitX=0.005;exitY=0.019;exitDx=0;exitDy=0;exitPerimeter=0;entryX=0.996;entryY=0.034;entryDx=0;entryDy=0;entryPerimeter=0;" parent="vnlTYIVXVwYV36SSMtpx-33" source="vnlTYIVXVwYV36SSMtpx-34" target="vnlTYIVXVwYV36SSMtpx-34" edge="1">
          <mxGeometry width="50" height="50" relative="1" as="geometry">
            <mxPoint x="120" y="200" as="sourcePoint" />
            <mxPoint x="170" y="150" as="targetPoint" />
          </mxGeometry>
        </mxCell>
        <mxCell id="vnlTYIVXVwYV36SSMtpx-36" value="-&amp;nbsp;username: String&lt;br&gt;- password: String&lt;br&gt;-classify_account: String" style="text;html=1;align=left;verticalAlign=middle;resizable=0;points=[];autosize=1;strokeColor=none;fillColor=none;" parent="vnlTYIVXVwYV36SSMtpx-33" vertex="1">
          <mxGeometry x="20" y="40" width="150" height="60" as="geometry" />
        </mxCell>
        <mxCell id="vnlTYIVXVwYV36SSMtpx-40" style="edgeStyle=orthogonalEdgeStyle;rounded=0;orthogonalLoop=1;jettySize=auto;html=1;exitX=0.25;exitY=0;exitDx=0;exitDy=0;entryX=0.221;entryY=1.002;entryDx=0;entryDy=0;entryPerimeter=0;" parent="1" source="vnlTYIVXVwYV36SSMtpx-37" target="vnlTYIVXVwYV36SSMtpx-34" edge="1">
          <mxGeometry relative="1" as="geometry" />
        </mxCell>
        <mxCell id="vnlTYIVXVwYV36SSMtpx-37" value="AccountDBContext" style="swimlane;whiteSpace=wrap;html=1;" parent="1" vertex="1">
          <mxGeometry x="5900" y="605" width="220" height="125" as="geometry" />
        </mxCell>
        <mxCell id="vnlTYIVXVwYV36SSMtpx-38" value="&lt;div style=&quot;text-align: left;&quot;&gt;&lt;span style=&quot;background-color: initial;&quot;&gt;+&amp;nbsp;&lt;/span&gt;&lt;span style=&quot;background-color: initial;&quot;&gt;updatePassword(String username,&lt;/span&gt;&lt;/div&gt;&lt;div style=&quot;text-align: left;&quot;&gt;&amp;nbsp;String newpassword): void&lt;/div&gt;" style="text;html=1;align=center;verticalAlign=middle;resizable=0;points=[];autosize=1;strokeColor=none;fillColor=none;" parent="vnlTYIVXVwYV36SSMtpx-37" vertex="1">
          <mxGeometry x="-5" y="50" width="220" height="40" as="geometry" />
        </mxCell>
        <mxCell id="vnlTYIVXVwYV36SSMtpx-41" value="Use" style="text;html=1;align=center;verticalAlign=middle;resizable=0;points=[];autosize=1;strokeColor=none;fillColor=none;" parent="1" vertex="1">
          <mxGeometry x="5950" y="745" width="40" height="30" as="geometry" />
        </mxCell>
        <mxCell id="vnlTYIVXVwYV36SSMtpx-42" value="has" style="text;html=1;align=center;verticalAlign=middle;resizable=0;points=[];autosize=1;strokeColor=none;fillColor=none;" parent="1" vertex="1">
          <mxGeometry x="5950" y="565" width="40" height="30" as="geometry" />
        </mxCell>
        <mxCell id="vnlTYIVXVwYV36SSMtpx-82" style="edgeStyle=orthogonalEdgeStyle;rounded=0;orthogonalLoop=1;jettySize=auto;html=1;exitX=0.25;exitY=0;exitDx=0;exitDy=0;entryX=0.75;entryY=1;entryDx=0;entryDy=0;" parent="1" source="vnlTYIVXVwYV36SSMtpx-43" target="vnlTYIVXVwYV36SSMtpx-58" edge="1">
          <mxGeometry relative="1" as="geometry" />
        </mxCell>
        <mxCell id="vnlTYIVXVwYV36SSMtpx-43" value="TotalManager" style="swimlane;whiteSpace=wrap;html=1;startSize=23;" parent="1" vertex="1">
          <mxGeometry x="5810" y="-230" width="270" height="140" as="geometry" />
        </mxCell>
        <mxCell id="vnlTYIVXVwYV36SSMtpx-45" value="#&amp;nbsp;doGet(HttpServletRequest request,&lt;br&gt;&amp;nbsp;HttpServletResponse response): void" style="text;html=1;align=center;verticalAlign=middle;resizable=0;points=[];autosize=1;strokeColor=none;fillColor=none;" parent="vnlTYIVXVwYV36SSMtpx-43" vertex="1">
          <mxGeometry x="10" y="40" width="230" height="40" as="geometry" />
        </mxCell>
        <mxCell id="vnlTYIVXVwYV36SSMtpx-46" value="#&amp;nbsp;doPost(HttpServletRequest request,&lt;br&gt;&amp;nbsp;HttpServletResponse response): void" style="text;html=1;align=center;verticalAlign=middle;resizable=0;points=[];autosize=1;strokeColor=none;fillColor=none;" parent="vnlTYIVXVwYV36SSMtpx-43" vertex="1">
          <mxGeometry x="10" y="90" width="230" height="40" as="geometry" />
        </mxCell>
        <mxCell id="vnlTYIVXVwYV36SSMtpx-90" style="edgeStyle=orthogonalEdgeStyle;rounded=0;orthogonalLoop=1;jettySize=auto;html=1;exitX=0.5;exitY=0;exitDx=0;exitDy=0;" parent="1" source="vnlTYIVXVwYV36SSMtpx-47" edge="1">
          <mxGeometry relative="1" as="geometry">
            <mxPoint x="5260.4" y="-630" as="targetPoint" />
          </mxGeometry>
        </mxCell>
        <mxCell id="vnlTYIVXVwYV36SSMtpx-47" value="UserManagement" style="swimlane;whiteSpace=wrap;html=1;startSize=23;" parent="1" vertex="1">
          <mxGeometry x="5125" y="-580" width="270" height="330" as="geometry" />
        </mxCell>
        <mxCell id="vnlTYIVXVwYV36SSMtpx-48" value="#&amp;nbsp;doGet(HttpServletRequest request,&lt;br&gt;&amp;nbsp;HttpServletResponse response): void" style="text;html=1;align=center;verticalAlign=middle;resizable=0;points=[];autosize=1;strokeColor=none;fillColor=none;" parent="vnlTYIVXVwYV36SSMtpx-47" vertex="1">
          <mxGeometry x="20" y="100" width="230" height="40" as="geometry" />
        </mxCell>
        <mxCell id="vnlTYIVXVwYV36SSMtpx-49" value="#&amp;nbsp;doPost(HttpServletRequest request,&lt;br&gt;&amp;nbsp;HttpServletResponse response): void" style="text;html=1;align=center;verticalAlign=middle;resizable=0;points=[];autosize=1;strokeColor=none;fillColor=none;" parent="vnlTYIVXVwYV36SSMtpx-47" vertex="1">
          <mxGeometry x="20" y="200" width="230" height="40" as="geometry" />
        </mxCell>
        <mxCell id="vnlTYIVXVwYV36SSMtpx-85" style="edgeStyle=orthogonalEdgeStyle;rounded=0;orthogonalLoop=1;jettySize=auto;html=1;exitX=0;exitY=0.5;exitDx=0;exitDy=0;entryX=1;entryY=0.5;entryDx=0;entryDy=0;" parent="1" source="vnlTYIVXVwYV36SSMtpx-50" target="vnlTYIVXVwYV36SSMtpx-58" edge="1">
          <mxGeometry relative="1" as="geometry" />
        </mxCell>
        <mxCell id="vnlTYIVXVwYV36SSMtpx-50" value="PremiumManager" style="swimlane;whiteSpace=wrap;html=1;startSize=23;" parent="1" vertex="1">
          <mxGeometry x="5810" y="-470" width="270" height="140" as="geometry" />
        </mxCell>
        <mxCell id="vnlTYIVXVwYV36SSMtpx-51" value="#&amp;nbsp;doGet(HttpServletRequest request,&lt;br&gt;&amp;nbsp;HttpServletResponse response): void" style="text;html=1;align=center;verticalAlign=middle;resizable=0;points=[];autosize=1;strokeColor=none;fillColor=none;" parent="vnlTYIVXVwYV36SSMtpx-50" vertex="1">
          <mxGeometry x="10" y="40" width="230" height="40" as="geometry" />
        </mxCell>
        <mxCell id="vnlTYIVXVwYV36SSMtpx-52" value="#&amp;nbsp;doPost(HttpServletRequest request,&lt;br&gt;&amp;nbsp;HttpServletResponse response): void" style="text;html=1;align=center;verticalAlign=middle;resizable=0;points=[];autosize=1;strokeColor=none;fillColor=none;" parent="vnlTYIVXVwYV36SSMtpx-50" vertex="1">
          <mxGeometry x="10" y="90" width="230" height="40" as="geometry" />
        </mxCell>
        <mxCell id="vnlTYIVXVwYV36SSMtpx-80" style="edgeStyle=orthogonalEdgeStyle;rounded=0;orthogonalLoop=1;jettySize=auto;html=1;exitX=0.25;exitY=1;exitDx=0;exitDy=0;" parent="1" source="vnlTYIVXVwYV36SSMtpx-53" target="vnlTYIVXVwYV36SSMtpx-58" edge="1">
          <mxGeometry relative="1" as="geometry" />
        </mxCell>
        <mxCell id="vnlTYIVXVwYV36SSMtpx-53" value="NomalUserManager" style="swimlane;whiteSpace=wrap;html=1;startSize=23;" parent="1" vertex="1">
          <mxGeometry x="5810" y="-770" width="270" height="140" as="geometry" />
        </mxCell>
        <mxCell id="vnlTYIVXVwYV36SSMtpx-54" value="#&amp;nbsp;doGet(HttpServletRequest request,&lt;br&gt;&amp;nbsp;HttpServletResponse response): void" style="text;html=1;align=center;verticalAlign=middle;resizable=0;points=[];autosize=1;strokeColor=none;fillColor=none;" parent="vnlTYIVXVwYV36SSMtpx-53" vertex="1">
          <mxGeometry x="10" y="40" width="230" height="40" as="geometry" />
        </mxCell>
        <mxCell id="vnlTYIVXVwYV36SSMtpx-55" value="#&amp;nbsp;doPost(HttpServletRequest request,&lt;br&gt;&amp;nbsp;HttpServletResponse response): void" style="text;html=1;align=center;verticalAlign=middle;resizable=0;points=[];autosize=1;strokeColor=none;fillColor=none;" parent="vnlTYIVXVwYV36SSMtpx-53" vertex="1">
          <mxGeometry x="10" y="90" width="230" height="40" as="geometry" />
        </mxCell>
        <mxCell id="vnlTYIVXVwYV36SSMtpx-92" style="edgeStyle=orthogonalEdgeStyle;rounded=0;orthogonalLoop=1;jettySize=auto;html=1;exitX=1;exitY=0.25;exitDx=0;exitDy=0;entryX=-0.006;entryY=0.426;entryDx=0;entryDy=0;entryPerimeter=0;" parent="1" source="vnlTYIVXVwYV36SSMtpx-56" target="vnlTYIVXVwYV36SSMtpx-66" edge="1">
          <mxGeometry relative="1" as="geometry" />
        </mxCell>
        <mxCell id="vnlTYIVXVwYV36SSMtpx-56" value="AccountDBContext" style="swimlane;whiteSpace=wrap;html=1;" parent="1" vertex="1">
          <mxGeometry x="5170" y="-755" width="220" height="125" as="geometry" />
        </mxCell>
        <mxCell id="vnlTYIVXVwYV36SSMtpx-57" value="&lt;div style=&quot;text-align: left;&quot;&gt;&lt;span style=&quot;background-color: initial;&quot;&gt;+&amp;nbsp;&lt;/span&gt;&lt;span style=&quot;background-color: initial;&quot;&gt;getNumberOfTotalUser()&lt;/span&gt;&lt;span style=&quot;background-color: initial;&quot;&gt;: int&lt;/span&gt;&lt;/div&gt;&lt;div style=&quot;text-align: left;&quot;&gt;&lt;span style=&quot;background-color: initial;&quot;&gt;+&amp;nbsp;&lt;/span&gt;&lt;span style=&quot;background-color: initial;&quot;&gt;getNumberOfPremiumUser(): int&lt;/span&gt;&lt;/div&gt;&lt;div style=&quot;text-align: left;&quot;&gt;&lt;span style=&quot;background-color: initial;&quot;&gt;+&amp;nbsp;&lt;/span&gt;&lt;span style=&quot;background-color: initial;&quot;&gt;getNumberOfTotalUser(): int&lt;/span&gt;&lt;/div&gt;" style="text;html=1;align=center;verticalAlign=middle;resizable=0;points=[];autosize=1;strokeColor=none;fillColor=none;" parent="vnlTYIVXVwYV36SSMtpx-56" vertex="1">
          <mxGeometry x="5" y="45" width="210" height="60" as="geometry" />
        </mxCell>
        <mxCell id="vnlTYIVXVwYV36SSMtpx-88" style="edgeStyle=orthogonalEdgeStyle;rounded=0;orthogonalLoop=1;jettySize=auto;html=1;exitX=0.25;exitY=1;exitDx=0;exitDy=0;entryX=0.5;entryY=0;entryDx=0;entryDy=0;" parent="1" source="vnlTYIVXVwYV36SSMtpx-58" target="vnlTYIVXVwYV36SSMtpx-60" edge="1">
          <mxGeometry relative="1" as="geometry" />
        </mxCell>
        <mxCell id="vnlTYIVXVwYV36SSMtpx-58" value="UserDBContext" style="swimlane;whiteSpace=wrap;html=1;" parent="1" vertex="1">
          <mxGeometry x="5490" y="-500" width="215" height="180" as="geometry" />
        </mxCell>
        <mxCell id="vnlTYIVXVwYV36SSMtpx-59" value="+&amp;nbsp;getTotalUserByKey(String&lt;br&gt;&amp;nbsp;keyRAW): List&amp;lt;User&amp;gt;" style="text;html=1;align=center;verticalAlign=middle;resizable=0;points=[];autosize=1;strokeColor=none;fillColor=none;" parent="vnlTYIVXVwYV36SSMtpx-58" vertex="1">
          <mxGeometry x="15" y="30" width="170" height="40" as="geometry" />
        </mxCell>
        <mxCell id="vnlTYIVXVwYV36SSMtpx-60" value="User" style="swimlane;whiteSpace=wrap;html=1;" parent="1" vertex="1">
          <mxGeometry x="5330" y="-230" width="420" height="389" as="geometry" />
        </mxCell>
        <mxCell id="vnlTYIVXVwYV36SSMtpx-61" value="-&amp;nbsp;user_id: int&lt;br&gt;-&amp;nbsp;full_name: String&lt;br&gt;-&amp;nbsp;dob: Date&lt;br&gt;-&amp;nbsp;gender: boolean&lt;br&gt;- parent_name: String&lt;br&gt;- parent_email: String&lt;br&gt;-&amp;nbsp;parent_phone_number:&amp;nbsp;" style="text;html=1;align=left;verticalAlign=middle;resizable=0;points=[];autosize=1;strokeColor=none;fillColor=none;" parent="vnlTYIVXVwYV36SSMtpx-60" vertex="1">
          <mxGeometry x="20" y="35" width="160" height="110" as="geometry" />
        </mxCell>
        <mxCell id="vnlTYIVXVwYV36SSMtpx-62" value="&lt;div style=&quot;text-align: left;&quot;&gt;&lt;span style=&quot;background-color: initial;&quot;&gt;+ getUser_id(): String&lt;/span&gt;&lt;/div&gt;&lt;div style=&quot;text-align: left;&quot;&gt;&lt;span style=&quot;background-color: initial;&quot;&gt;+&amp;nbsp;getFull_name(): String&lt;/span&gt;&lt;/div&gt;&lt;div style=&quot;text-align: left;&quot;&gt;&lt;span style=&quot;background-color: initial;&quot;&gt;+&amp;nbsp;setUser_id(int user_id): void&lt;/span&gt;&lt;/div&gt;&lt;div style=&quot;text-align: left;&quot;&gt;&lt;span style=&quot;background-color: initial;&quot;&gt;+&amp;nbsp;setFull_name(String full_name): void&lt;/span&gt;&lt;/div&gt;&lt;div style=&quot;text-align: left;&quot;&gt;&lt;span style=&quot;background-color: initial;&quot;&gt;+ getDob(): Date&lt;/span&gt;&lt;/div&gt;&lt;div style=&quot;text-align: left;&quot;&gt;&lt;span style=&quot;background-color: initial;&quot;&gt;+&amp;nbsp;setDob(Date dob): void&lt;/span&gt;&lt;/div&gt;&lt;div style=&quot;text-align: left;&quot;&gt;&lt;span style=&quot;background-color: initial;&quot;&gt;+ getGender(): boolean&lt;/span&gt;&lt;/div&gt;&lt;div style=&quot;text-align: left;&quot;&gt;&lt;span style=&quot;background-color: initial;&quot;&gt;+&amp;nbsp;setGender(boolean gender): void&lt;/span&gt;&lt;/div&gt;&lt;div style=&quot;text-align: left;&quot;&gt;&lt;span style=&quot;background-color: initial;&quot;&gt;+&amp;nbsp;getParent_name(): String&lt;/span&gt;&lt;/div&gt;&lt;div style=&quot;text-align: left;&quot;&gt;&lt;span style=&quot;background-color: initial;&quot;&gt;+&amp;nbsp;setParent_name(String parent_name): void&lt;/span&gt;&lt;/div&gt;&lt;div style=&quot;text-align: left;&quot;&gt;&lt;span style=&quot;background-color: initial;&quot;&gt;+&amp;nbsp;getParent_email(): String&lt;/span&gt;&lt;/div&gt;&lt;div style=&quot;text-align: left;&quot;&gt;&lt;span style=&quot;background-color: initial;&quot;&gt;+&amp;nbsp;setParent_email(String parent_email): void&lt;/span&gt;&lt;/div&gt;&lt;div style=&quot;text-align: left;&quot;&gt;&lt;span style=&quot;background-color: initial;&quot;&gt;+&amp;nbsp;getParent_phone_number(): String&lt;/span&gt;&lt;/div&gt;&lt;div style=&quot;text-align: left;&quot;&gt;&lt;span style=&quot;background-color: initial;&quot;&gt;+&amp;nbsp;setParent_phone_number(String parent_phone_number): String&lt;/span&gt;&lt;/div&gt;" style="text;html=1;align=center;verticalAlign=middle;resizable=0;points=[];autosize=1;strokeColor=none;fillColor=none;" parent="vnlTYIVXVwYV36SSMtpx-60" vertex="1">
          <mxGeometry x="10" y="170" width="370" height="220" as="geometry" />
        </mxCell>
        <mxCell id="vnlTYIVXVwYV36SSMtpx-64" value="Account" style="swimlane;whiteSpace=wrap;html=1;startSize=23;" parent="1" vertex="1">
          <mxGeometry x="5447.5" y="-900" width="300" height="250" as="geometry" />
        </mxCell>
        <mxCell id="vnlTYIVXVwYV36SSMtpx-65" value="-&amp;nbsp;username: String&lt;br&gt;- password: String&lt;br&gt;-classify_account: String" style="text;html=1;align=left;verticalAlign=middle;resizable=0;points=[];autosize=1;strokeColor=none;fillColor=none;" parent="vnlTYIVXVwYV36SSMtpx-64" vertex="1">
          <mxGeometry x="20" y="40" width="150" height="60" as="geometry" />
        </mxCell>
        <mxCell id="vnlTYIVXVwYV36SSMtpx-66" value="&lt;div style=&quot;text-align: left;&quot;&gt;&lt;span style=&quot;background-color: initial;&quot;&gt;+ getUsername() : String&lt;/span&gt;&lt;/div&gt;&lt;div style=&quot;text-align: left;&quot;&gt;&lt;span style=&quot;background-color: initial;&quot;&gt;+ setUsername(String username): void&lt;/span&gt;&lt;/div&gt;&lt;div style=&quot;text-align: left;&quot;&gt;&lt;span style=&quot;background-color: initial;&quot;&gt;+ getPassword(): String&lt;/span&gt;&lt;/div&gt;&lt;div style=&quot;text-align: left;&quot;&gt;&lt;span style=&quot;background-color: initial;&quot;&gt;+ setPassword(String password): void&lt;/span&gt;&lt;/div&gt;&lt;div style=&quot;text-align: left;&quot;&gt;&lt;span style=&quot;background-color: initial;&quot;&gt;+ getClassify_account(): String&lt;/span&gt;&lt;/div&gt;&lt;div style=&quot;text-align: left;&quot;&gt;&lt;span style=&quot;background-color: initial;&quot;&gt;+ setClassify_account(String classify_account): void&lt;/span&gt;&lt;/div&gt;&lt;div style=&quot;text-align: left;&quot;&gt;&lt;span style=&quot;background-color: initial;&quot;&gt;+ getRoles(): ArrayList&amp;lt;Role&amp;gt;&lt;/span&gt;&lt;/div&gt;&lt;div style=&quot;text-align: left;&quot;&gt;&lt;span style=&quot;background-color: initial;&quot;&gt;&amp;nbsp;&lt;/span&gt;&lt;/div&gt;" style="text;html=1;align=center;verticalAlign=middle;resizable=0;points=[];autosize=1;strokeColor=none;fillColor=none;" parent="vnlTYIVXVwYV36SSMtpx-64" vertex="1">
          <mxGeometry y="120" width="300" height="130" as="geometry" />
        </mxCell>
        <mxCell id="vnlTYIVXVwYV36SSMtpx-67" value="" style="endArrow=none;html=1;rounded=0;exitX=0.005;exitY=0.019;exitDx=0;exitDy=0;exitPerimeter=0;entryX=0.996;entryY=0.034;entryDx=0;entryDy=0;entryPerimeter=0;" parent="vnlTYIVXVwYV36SSMtpx-64" source="vnlTYIVXVwYV36SSMtpx-66" target="vnlTYIVXVwYV36SSMtpx-66" edge="1">
          <mxGeometry width="50" height="50" relative="1" as="geometry">
            <mxPoint x="120" y="200" as="sourcePoint" />
            <mxPoint x="170" y="150" as="targetPoint" />
          </mxGeometry>
        </mxCell>
        <mxCell id="vnlTYIVXVwYV36SSMtpx-83" value="use" style="text;html=1;align=center;verticalAlign=middle;resizable=0;points=[];autosize=1;strokeColor=none;fillColor=none;" parent="1" vertex="1">
          <mxGeometry x="5750" y="-295" width="40" height="30" as="geometry" />
        </mxCell>
        <mxCell id="vnlTYIVXVwYV36SSMtpx-86" value="use" style="text;html=1;align=center;verticalAlign=middle;resizable=0;points=[];autosize=1;strokeColor=none;fillColor=none;" parent="1" vertex="1">
          <mxGeometry x="5720" y="-435" width="40" height="30" as="geometry" />
        </mxCell>
        <mxCell id="vnlTYIVXVwYV36SSMtpx-87" value="use" style="text;html=1;align=center;verticalAlign=middle;resizable=0;points=[];autosize=1;strokeColor=none;fillColor=none;" parent="1" vertex="1">
          <mxGeometry x="5705" y="-590" width="40" height="30" as="geometry" />
        </mxCell>
        <mxCell id="vnlTYIVXVwYV36SSMtpx-89" value="has" style="text;html=1;align=center;verticalAlign=middle;resizable=0;points=[];autosize=1;strokeColor=none;fillColor=none;" parent="1" vertex="1">
          <mxGeometry x="5510" y="-295" width="40" height="30" as="geometry" />
        </mxCell>
        <mxCell id="vnlTYIVXVwYV36SSMtpx-91" value="use" style="text;html=1;align=center;verticalAlign=middle;resizable=0;points=[];autosize=1;strokeColor=none;fillColor=none;" parent="1" vertex="1">
          <mxGeometry x="5222.5" y="-620" width="40" height="30" as="geometry" />
        </mxCell>
        <mxCell id="vnlTYIVXVwYV36SSMtpx-93" value="has" style="text;html=1;align=center;verticalAlign=middle;resizable=0;points=[];autosize=1;strokeColor=none;fillColor=none;" parent="1" vertex="1">
          <mxGeometry x="5395" y="-755" width="40" height="30" as="geometry" />
        </mxCell>
        <mxCell id="nSZftVaQ9IzjvLu4ULw2-9" value="Loginsuccess" style="text;html=1;align=center;verticalAlign=middle;resizable=0;points=[];autosize=1;strokeColor=none;fillColor=none;" parent="1" vertex="1">
          <mxGeometry x="300" y="571.25" width="100" height="30" as="geometry" />
        </mxCell>
        <mxCell id="kSUuMkcsXtGZUpF6bscl-13" value="" style="html=1;verticalAlign=bottom;endArrow=open;dashed=1;endSize=8;edgeStyle=elbowEdgeStyle;elbow=vertical;curved=0;rounded=0;exitX=-0.146;exitY=0.657;exitDx=0;exitDy=0;exitPerimeter=0;" parent="1" target="zgJvrpXNEwTxWeU-P69i-18" edge="1" source="zgJvrpXNEwTxWeU-P69i-7">
          <mxGeometry relative="1" as="geometry">
            <mxPoint x="670" y="400" as="sourcePoint" />
            <mxPoint x="800" y="400" as="targetPoint" />
            <Array as="points">
              <mxPoint x="650" y="380" />
              <mxPoint x="690" y="400" />
            </Array>
          </mxGeometry>
        </mxCell>
        <mxCell id="kSUuMkcsXtGZUpF6bscl-17" value="" style="html=1;verticalAlign=bottom;endArrow=open;dashed=1;endSize=8;edgeStyle=elbowEdgeStyle;elbow=vertical;curved=0;rounded=0;exitX=0;exitY=0.75;exitDx=0;exitDy=0;entryX=0.25;entryY=1;entryDx=0;entryDy=0;" parent="1" source="zgJvrpXNEwTxWeU-P69i-44" target="zgJvrpXNEwTxWeU-P69i-2" edge="1">
          <mxGeometry x="0.2536" y="-90" relative="1" as="geometry">
            <mxPoint x="690" y="590" as="sourcePoint" />
            <mxPoint x="610" y="590" as="targetPoint" />
            <Array as="points">
              <mxPoint x="290" y="599" />
              <mxPoint x="490" y="560" />
            </Array>
            <mxPoint x="1" as="offset" />
          </mxGeometry>
        </mxCell>
        <mxCell id="kSUuMkcsXtGZUpF6bscl-23" value="sendRedirect" style="text;html=1;align=center;verticalAlign=middle;resizable=0;points=[];autosize=1;strokeColor=none;fillColor=none;" parent="1" vertex="1">
          <mxGeometry x="440" y="1394" width="89" height="26" as="geometry" />
        </mxCell>
        <mxCell id="kSUuMkcsXtGZUpF6bscl-25" value="" style="html=1;verticalAlign=bottom;endArrow=open;dashed=1;endSize=8;edgeStyle=elbowEdgeStyle;elbow=vertical;curved=0;rounded=0;exitX=1;exitY=0.5;exitDx=0;exitDy=0;entryX=0;entryY=0.5;entryDx=0;entryDy=0;" parent="1" source="zgJvrpXNEwTxWeU-P69i-134" target="zgJvrpXNEwTxWeU-P69i-145" edge="1">
          <mxGeometry x="-0.3736" y="55" relative="1" as="geometry">
            <mxPoint x="1064" y="1490" as="sourcePoint" />
            <mxPoint x="984" y="1490" as="targetPoint" />
            <Array as="points">
              <mxPoint x="1184" y="1420" />
              <mxPoint x="1184" y="1410" />
            </Array>
            <mxPoint as="offset" />
          </mxGeometry>
        </mxCell>
        <mxCell id="kSUuMkcsXtGZUpF6bscl-26" value="" style="endArrow=open;endSize=12;dashed=1;html=1;rounded=0;entryX=0.5;entryY=0;entryDx=0;entryDy=0;exitX=0.5;exitY=1;exitDx=0;exitDy=0;" parent="1" source="zgJvrpXNEwTxWeU-P69i-134" target="zgJvrpXNEwTxWeU-P69i-148" edge="1">
          <mxGeometry y="-30" width="160" relative="1" as="geometry">
            <mxPoint x="934" y="1520" as="sourcePoint" />
            <mxPoint x="1094" y="1520" as="targetPoint" />
            <mxPoint as="offset" />
          </mxGeometry>
        </mxCell>
        <mxCell id="OS-VpMHr_oTkPdKjHbIb-54" style="edgeStyle=orthogonalEdgeStyle;rounded=0;orthogonalLoop=1;jettySize=auto;html=1;exitX=0;exitY=0.75;exitDx=0;exitDy=0;entryX=1;entryY=0.75;entryDx=0;entryDy=0;" edge="1" parent="1" source="kSUuMkcsXtGZUpF6bscl-47" target="OS-VpMHr_oTkPdKjHbIb-49">
          <mxGeometry relative="1" as="geometry" />
        </mxCell>
        <mxCell id="kSUuMkcsXtGZUpF6bscl-47" value="" style="rounded=0;whiteSpace=wrap;html=1;" parent="1" vertex="1">
          <mxGeometry x="779" y="1635" width="20" height="50" as="geometry" />
        </mxCell>
        <mxCell id="kSUuMkcsXtGZUpF6bscl-48" value="UserDBContext" style="rounded=0;whiteSpace=wrap;html=1;" parent="1" vertex="1">
          <mxGeometry x="724" y="1707.5" width="130" height="40" as="geometry" />
        </mxCell>
        <mxCell id="kSUuMkcsXtGZUpF6bscl-49" value="" style="endArrow=none;dashed=1;html=1;rounded=0;entryX=0.5;entryY=1;entryDx=0;entryDy=0;exitX=0.5;exitY=0;exitDx=0;exitDy=0;" parent="1" source="kSUuMkcsXtGZUpF6bscl-48" target="kSUuMkcsXtGZUpF6bscl-47" edge="1">
          <mxGeometry width="50" height="50" relative="1" as="geometry">
            <mxPoint x="624" y="1675" as="sourcePoint" />
            <mxPoint x="674" y="1625" as="targetPoint" />
          </mxGeometry>
        </mxCell>
        <mxCell id="kSUuMkcsXtGZUpF6bscl-51" value="User &lt;br&gt;information" style="text;html=1;align=center;verticalAlign=middle;resizable=0;points=[];autosize=1;strokeColor=none;fillColor=none;" parent="1" vertex="1">
          <mxGeometry x="780" y="1555" width="80" height="40" as="geometry" />
        </mxCell>
        <mxCell id="kSUuMkcsXtGZUpF6bscl-58" value="Use" style="endArrow=open;endSize=12;dashed=1;html=1;rounded=0;exitX=1;exitY=0.5;exitDx=0;exitDy=0;entryX=0.004;entryY=0.612;entryDx=0;entryDy=0;entryPerimeter=0;" parent="1" source="zgJvrpXNEwTxWeU-P69i-208" target="zgJvrpXNEwTxWeU-P69i-221" edge="1">
          <mxGeometry x="1" y="343" width="160" relative="1" as="geometry">
            <mxPoint x="1927.5" y="368.82" as="sourcePoint" />
            <mxPoint x="2067.5" y="368.82" as="targetPoint" />
            <mxPoint x="345" y="334" as="offset" />
          </mxGeometry>
        </mxCell>
        <mxCell id="kSUuMkcsXtGZUpF6bscl-59" value="Fail" style="html=1;verticalAlign=bottom;endArrow=open;dashed=1;endSize=8;edgeStyle=elbowEdgeStyle;elbow=vertical;curved=0;rounded=0;exitX=0.25;exitY=1;exitDx=0;exitDy=0;entryX=0.5;entryY=0;entryDx=0;entryDy=0;" parent="1" source="zgJvrpXNEwTxWeU-P69i-208" target="zgJvrpXNEwTxWeU-P69i-228" edge="1">
          <mxGeometry relative="1" as="geometry">
            <mxPoint x="1837.5" y="458.82" as="sourcePoint" />
            <mxPoint x="1757.5" y="458.82" as="targetPoint" />
          </mxGeometry>
        </mxCell>
        <mxCell id="kSUuMkcsXtGZUpF6bscl-60" value="parentEmail" style="text;html=1;align=center;verticalAlign=middle;resizable=0;points=[];autosize=1;strokeColor=none;fillColor=none;" parent="1" vertex="1">
          <mxGeometry x="1640" y="333.82" width="90" height="30" as="geometry" />
        </mxCell>
        <mxCell id="kSUuMkcsXtGZUpF6bscl-62" value="sendRedirect" style="text;html=1;align=center;verticalAlign=middle;resizable=0;points=[];autosize=1;strokeColor=none;fillColor=none;" parent="1" vertex="1">
          <mxGeometry x="1465" y="355" width="90" height="30" as="geometry" />
        </mxCell>
        <mxCell id="kSUuMkcsXtGZUpF6bscl-66" value="username" style="text;html=1;align=center;verticalAlign=middle;resizable=0;points=[];autosize=1;strokeColor=none;fillColor=none;" parent="1" vertex="1">
          <mxGeometry x="2560" y="1380" width="80" height="30" as="geometry" />
        </mxCell>
        <mxCell id="kSUuMkcsXtGZUpF6bscl-67" value="click&amp;nbsp;UserManagement" style="text;html=1;align=center;verticalAlign=middle;resizable=0;points=[];autosize=1;strokeColor=none;fillColor=none;" parent="1" vertex="1">
          <mxGeometry x="2370" y="1400" width="150" height="30" as="geometry" />
        </mxCell>
        <mxCell id="kSUuMkcsXtGZUpF6bscl-69" value="Use" style="endArrow=open;endSize=12;dashed=1;html=1;rounded=0;entryX=1;entryY=0.75;entryDx=0;entryDy=0;exitX=-0.027;exitY=0.455;exitDx=0;exitDy=0;exitPerimeter=0;" parent="1" source="zgJvrpXNEwTxWeU-P69i-255" target="zgJvrpXNEwTxWeU-P69i-239" edge="1">
          <mxGeometry width="160" relative="1" as="geometry">
            <mxPoint x="2480" y="1550" as="sourcePoint" />
            <mxPoint x="2640" y="1550" as="targetPoint" />
          </mxGeometry>
        </mxCell>
        <mxCell id="OS-VpMHr_oTkPdKjHbIb-2" value="RequestDispatcher" style="text;html=1;align=center;verticalAlign=middle;resizable=0;points=[];autosize=1;strokeColor=none;fillColor=none;" vertex="1" parent="1">
          <mxGeometry x="505" y="315" width="130" height="30" as="geometry" />
        </mxCell>
        <mxCell id="OS-VpMHr_oTkPdKjHbIb-4" value="" style="endArrow=none;dashed=1;html=1;rounded=0;entryX=0.25;entryY=1;entryDx=0;entryDy=0;exitX=0.5;exitY=0;exitDx=0;exitDy=0;" edge="1" parent="1" source="zgJvrpXNEwTxWeU-P69i-28" target="zgJvrpXNEwTxWeU-P69i-26">
          <mxGeometry width="50" height="50" relative="1" as="geometry">
            <mxPoint x="355" y="410" as="sourcePoint" />
            <mxPoint x="405" y="360" as="targetPoint" />
          </mxGeometry>
        </mxCell>
        <mxCell id="OS-VpMHr_oTkPdKjHbIb-7" value="UserName, &lt;br&gt;password" style="text;html=1;align=center;verticalAlign=middle;resizable=0;points=[];autosize=1;strokeColor=none;fillColor=none;" vertex="1" parent="1">
          <mxGeometry x="475" y="435" width="80" height="40" as="geometry" />
        </mxCell>
        <mxCell id="OS-VpMHr_oTkPdKjHbIb-9" value="Account" style="endArrow=open;endSize=12;dashed=1;html=1;rounded=0;entryX=1;entryY=1;entryDx=0;entryDy=0;" edge="1" parent="1" target="zgJvrpXNEwTxWeU-P69i-18">
          <mxGeometry x="-0.3339" width="160" relative="1" as="geometry">
            <mxPoint x="550" y="500" as="sourcePoint" />
            <mxPoint x="800" y="440" as="targetPoint" />
            <Array as="points">
              <mxPoint x="450" y="500" />
            </Array>
            <mxPoint as="offset" />
          </mxGeometry>
        </mxCell>
        <mxCell id="OS-VpMHr_oTkPdKjHbIb-10" style="edgeStyle=orthogonalEdgeStyle;rounded=0;orthogonalLoop=1;jettySize=auto;html=1;exitX=1;exitY=0.5;exitDx=0;exitDy=0;" edge="1" parent="1" source="OS-VpMHr_oTkPdKjHbIb-11">
          <mxGeometry relative="1" as="geometry">
            <mxPoint x="1450.3913043478265" y="620.0000000000001" as="targetPoint" />
          </mxGeometry>
        </mxCell>
        <mxCell id="OS-VpMHr_oTkPdKjHbIb-11" value="" style="rounded=0;whiteSpace=wrap;html=1;" vertex="1" parent="1">
          <mxGeometry x="1430" y="510" width="20" height="110" as="geometry" />
        </mxCell>
        <mxCell id="OS-VpMHr_oTkPdKjHbIb-12" value="" style="rounded=0;whiteSpace=wrap;html=1;" vertex="1" parent="1">
          <mxGeometry x="1375" y="650" width="130" height="50" as="geometry" />
        </mxCell>
        <mxCell id="OS-VpMHr_oTkPdKjHbIb-14" value="forgetPassword.jsp" style="text;html=1;strokeColor=none;fillColor=none;align=center;verticalAlign=middle;whiteSpace=wrap;rounded=0;" vertex="1" parent="1">
          <mxGeometry x="1410" y="660" width="60" height="30" as="geometry" />
        </mxCell>
        <mxCell id="OS-VpMHr_oTkPdKjHbIb-15" value="&lt;span style=&quot;color: rgb(0, 0, 0); font-family: Helvetica; font-size: 12px; font-style: normal; font-variant-ligatures: normal; font-variant-caps: normal; font-weight: 400; letter-spacing: normal; orphans: 2; text-align: center; text-indent: 0px; text-transform: none; widows: 2; word-spacing: 0px; -webkit-text-stroke-width: 0px; background-color: rgb(251, 251, 251); text-decoration-thickness: initial; text-decoration-style: initial; text-decoration-color: initial; float: none; display: inline !important;&quot;&gt;Validate&lt;/span&gt;&lt;br style=&quot;border-color: var(--border-color); color: rgb(0, 0, 0); font-family: Helvetica; font-size: 12px; font-style: normal; font-variant-ligatures: normal; font-variant-caps: normal; font-weight: 400; letter-spacing: normal; orphans: 2; text-align: center; text-indent: 0px; text-transform: none; widows: 2; word-spacing: 0px; -webkit-text-stroke-width: 0px; background-color: rgb(251, 251, 251); text-decoration-thickness: initial; text-decoration-style: initial; text-decoration-color: initial;&quot;&gt;&lt;span style=&quot;color: rgb(0, 0, 0); font-family: Helvetica; font-size: 12px; font-style: normal; font-variant-ligatures: normal; font-variant-caps: normal; font-weight: 400; letter-spacing: normal; orphans: 2; text-align: center; text-indent: 0px; text-transform: none; widows: 2; word-spacing: 0px; -webkit-text-stroke-width: 0px; background-color: rgb(251, 251, 251); text-decoration-thickness: initial; text-decoration-style: initial; text-decoration-color: initial; float: none; display: inline !important;&quot;&gt;input&lt;/span&gt;" style="text;whiteSpace=wrap;html=1;" vertex="1" parent="1">
          <mxGeometry x="1470" y="575" width="50" height="50" as="geometry" />
        </mxCell>
        <mxCell id="OS-VpMHr_oTkPdKjHbIb-16" value="Invalid" style="html=1;verticalAlign=bottom;endArrow=open;dashed=1;endSize=8;edgeStyle=elbowEdgeStyle;elbow=vertical;curved=0;rounded=0;entryX=0;entryY=0.5;entryDx=0;entryDy=0;" edge="1" parent="1">
          <mxGeometry x="-0.6699" relative="1" as="geometry">
            <mxPoint x="1430" y="615" as="sourcePoint" />
            <mxPoint x="1430" y="560" as="targetPoint" />
            <Array as="points">
              <mxPoint x="1350" y="615" />
            </Array>
            <mxPoint as="offset" />
          </mxGeometry>
        </mxCell>
        <mxCell id="OS-VpMHr_oTkPdKjHbIb-17" value="" style="endArrow=none;dashed=1;html=1;rounded=0;exitX=0.5;exitY=0;exitDx=0;exitDy=0;" edge="1" parent="1" source="OS-VpMHr_oTkPdKjHbIb-12">
          <mxGeometry width="50" height="50" relative="1" as="geometry">
            <mxPoint x="1390" y="670" as="sourcePoint" />
            <mxPoint x="1440" y="620" as="targetPoint" />
          </mxGeometry>
        </mxCell>
        <mxCell id="OS-VpMHr_oTkPdKjHbIb-20" value="Request&lt;br&gt;Dispatcher" style="text;html=1;align=center;verticalAlign=middle;resizable=0;points=[];autosize=1;strokeColor=none;fillColor=none;" vertex="1" parent="1">
          <mxGeometry x="1335" y="445" width="80" height="40" as="geometry" />
        </mxCell>
        <mxCell id="OS-VpMHr_oTkPdKjHbIb-21" value="" style="endArrow=open;endSize=12;dashed=1;html=1;rounded=0;exitX=0.75;exitY=0;exitDx=0;exitDy=0;entryX=1;entryY=1;entryDx=0;entryDy=0;" edge="1" parent="1" source="OS-VpMHr_oTkPdKjHbIb-11" target="zgJvrpXNEwTxWeU-P69i-195">
          <mxGeometry width="160" relative="1" as="geometry">
            <mxPoint x="1570" y="460" as="sourcePoint" />
            <mxPoint x="1730" y="460" as="targetPoint" />
          </mxGeometry>
        </mxCell>
        <mxCell id="OS-VpMHr_oTkPdKjHbIb-23" style="edgeStyle=orthogonalEdgeStyle;rounded=0;orthogonalLoop=1;jettySize=auto;html=1;entryX=1;entryY=0.75;entryDx=0;entryDy=0;exitX=1;exitY=0.25;exitDx=0;exitDy=0;" edge="1" parent="1" source="OS-VpMHr_oTkPdKjHbIb-24" target="OS-VpMHr_oTkPdKjHbIb-24">
          <mxGeometry relative="1" as="geometry">
            <mxPoint x="520" y="1725" as="targetPoint" />
          </mxGeometry>
        </mxCell>
        <mxCell id="OS-VpMHr_oTkPdKjHbIb-24" value="" style="rounded=0;whiteSpace=wrap;html=1;" vertex="1" parent="1">
          <mxGeometry x="390" y="1670" width="20" height="140" as="geometry" />
        </mxCell>
        <mxCell id="OS-VpMHr_oTkPdKjHbIb-25" value="" style="rounded=0;whiteSpace=wrap;html=1;" vertex="1" parent="1">
          <mxGeometry x="350" y="1852.5" width="100" height="50" as="geometry" />
        </mxCell>
        <mxCell id="OS-VpMHr_oTkPdKjHbIb-27" value="signup.jsp" style="text;html=1;strokeColor=none;fillColor=none;align=center;verticalAlign=middle;whiteSpace=wrap;rounded=0;" vertex="1" parent="1">
          <mxGeometry x="370" y="1860" width="60" height="30" as="geometry" />
        </mxCell>
        <mxCell id="OS-VpMHr_oTkPdKjHbIb-28" value="Invalid" style="html=1;verticalAlign=bottom;endArrow=open;dashed=1;endSize=8;edgeStyle=elbowEdgeStyle;elbow=vertical;curved=0;rounded=0;entryX=0;entryY=0.5;entryDx=0;entryDy=0;" edge="1" parent="1" target="OS-VpMHr_oTkPdKjHbIb-24">
          <mxGeometry x="-0.6699" relative="1" as="geometry">
            <mxPoint x="390" y="1780" as="sourcePoint" />
            <mxPoint x="320" y="1730" as="targetPoint" />
            <Array as="points">
              <mxPoint x="310" y="1780" />
            </Array>
            <mxPoint as="offset" />
          </mxGeometry>
        </mxCell>
        <mxCell id="OS-VpMHr_oTkPdKjHbIb-29" value="&lt;span style=&quot;color: rgb(0, 0, 0); font-family: Helvetica; font-size: 12px; font-style: normal; font-variant-ligatures: normal; font-variant-caps: normal; font-weight: 400; letter-spacing: normal; orphans: 2; text-align: center; text-indent: 0px; text-transform: none; widows: 2; word-spacing: 0px; -webkit-text-stroke-width: 0px; background-color: rgb(251, 251, 251); text-decoration-thickness: initial; text-decoration-style: initial; text-decoration-color: initial; float: none; display: inline !important;&quot;&gt;Validate&lt;/span&gt;&lt;br style=&quot;border-color: var(--border-color); color: rgb(0, 0, 0); font-family: Helvetica; font-size: 12px; font-style: normal; font-variant-ligatures: normal; font-variant-caps: normal; font-weight: 400; letter-spacing: normal; orphans: 2; text-align: center; text-indent: 0px; text-transform: none; widows: 2; word-spacing: 0px; -webkit-text-stroke-width: 0px; background-color: rgb(251, 251, 251); text-decoration-thickness: initial; text-decoration-style: initial; text-decoration-color: initial;&quot;&gt;&lt;span style=&quot;color: rgb(0, 0, 0); font-family: Helvetica; font-size: 12px; font-style: normal; font-variant-ligatures: normal; font-variant-caps: normal; font-weight: 400; letter-spacing: normal; orphans: 2; text-align: center; text-indent: 0px; text-transform: none; widows: 2; word-spacing: 0px; -webkit-text-stroke-width: 0px; background-color: rgb(251, 251, 251); text-decoration-thickness: initial; text-decoration-style: initial; text-decoration-color: initial; float: none; display: inline !important;&quot;&gt;input&lt;/span&gt;" style="text;whiteSpace=wrap;html=1;" vertex="1" parent="1">
          <mxGeometry x="435" y="1715" width="50" height="50" as="geometry" />
        </mxCell>
        <mxCell id="OS-VpMHr_oTkPdKjHbIb-30" value="Error Mess" style="text;html=1;strokeColor=none;fillColor=none;align=center;verticalAlign=middle;whiteSpace=wrap;rounded=0;" vertex="1" parent="1">
          <mxGeometry x="310" y="1780" width="80" height="30" as="geometry" />
        </mxCell>
        <mxCell id="OS-VpMHr_oTkPdKjHbIb-31" value="" style="endArrow=none;dashed=1;html=1;rounded=0;entryX=0.5;entryY=1;entryDx=0;entryDy=0;" edge="1" parent="1" target="OS-VpMHr_oTkPdKjHbIb-24">
          <mxGeometry width="50" height="50" relative="1" as="geometry">
            <mxPoint x="400" y="1850" as="sourcePoint" />
            <mxPoint x="770" y="1630" as="targetPoint" />
          </mxGeometry>
        </mxCell>
        <mxCell id="OS-VpMHr_oTkPdKjHbIb-32" value="Request&lt;br&gt;Dispatcher" style="text;html=1;align=center;verticalAlign=middle;resizable=0;points=[];autosize=1;strokeColor=none;fillColor=none;" vertex="1" parent="1">
          <mxGeometry x="300" y="1575" width="80" height="40" as="geometry" />
        </mxCell>
        <mxCell id="OS-VpMHr_oTkPdKjHbIb-37" value="&lt;br&gt;&lt;span style=&quot;color: rgb(0, 0, 0); font-family: Helvetica; font-size: 12px; font-style: normal; font-variant-ligatures: normal; font-variant-caps: normal; font-weight: 400; letter-spacing: normal; orphans: 2; text-align: center; text-indent: 0px; text-transform: none; widows: 2; word-spacing: 0px; -webkit-text-stroke-width: 0px; background-color: rgb(255, 255, 255); text-decoration-thickness: initial; text-decoration-style: initial; text-decoration-color: initial; float: none; display: inline !important;&quot;&gt;Username, &lt;br&gt;password&lt;/span&gt;" style="html=1;verticalAlign=bottom;endArrow=open;dashed=1;endSize=8;edgeStyle=elbowEdgeStyle;elbow=vertical;curved=0;rounded=0;exitX=1;exitY=0;exitDx=0;exitDy=0;entryX=1;entryY=1;entryDx=0;entryDy=0;" edge="1" parent="1" source="OS-VpMHr_oTkPdKjHbIb-24" target="zgJvrpXNEwTxWeU-P69i-74">
          <mxGeometry x="-0.0588" y="-20" relative="1" as="geometry">
            <mxPoint x="470" y="1570" as="sourcePoint" />
            <mxPoint x="390" y="1570" as="targetPoint" />
            <Array as="points" />
            <mxPoint as="offset" />
          </mxGeometry>
        </mxCell>
        <mxCell id="OS-VpMHr_oTkPdKjHbIb-48" value="&#xa;&lt;br style=&quot;border-color: var(--border-color); color: rgb(0, 0, 0); font-family: Helvetica; font-size: 11px; font-style: normal; font-variant-ligatures: normal; font-variant-caps: normal; font-weight: 400; letter-spacing: normal; orphans: 2; text-align: center; text-indent: 0px; text-transform: none; widows: 2; word-spacing: 0px; -webkit-text-stroke-width: 0px; text-decoration-thickness: initial; text-decoration-style: initial; text-decoration-color: initial;&quot;&gt;&lt;span style=&quot;border-color: var(--border-color); color: rgb(0, 0, 0); font-family: Helvetica; font-style: normal; font-variant-ligatures: normal; font-variant-caps: normal; font-weight: 400; letter-spacing: normal; orphans: 2; text-align: center; text-indent: 0px; text-transform: none; widows: 2; word-spacing: 0px; -webkit-text-stroke-width: 0px; background-color: rgb(255, 255, 255); text-decoration-thickness: initial; text-decoration-style: initial; text-decoration-color: initial; font-size: 12px; float: none; display: inline !important;&quot;&gt;Username,&lt;br style=&quot;border-color: var(--border-color);&quot;&gt;password&lt;/span&gt;&#xa;&#xa;" style="text;html=1;align=center;verticalAlign=middle;resizable=0;points=[];autosize=1;strokeColor=none;fillColor=none;" vertex="1" parent="1">
          <mxGeometry x="485" y="1585" width="80" height="90" as="geometry" />
        </mxCell>
        <mxCell id="OS-VpMHr_oTkPdKjHbIb-49" value="" style="rounded=0;whiteSpace=wrap;html=1;" vertex="1" parent="1">
          <mxGeometry x="670" y="1630" width="24" height="60" as="geometry" />
        </mxCell>
        <mxCell id="OS-VpMHr_oTkPdKjHbIb-50" value="Database" style="rounded=0;whiteSpace=wrap;html=1;" vertex="1" parent="1">
          <mxGeometry x="634" y="1775" width="96" height="45" as="geometry" />
        </mxCell>
        <mxCell id="OS-VpMHr_oTkPdKjHbIb-51" value="" style="endArrow=none;dashed=1;html=1;rounded=0;exitX=0.5;exitY=0;exitDx=0;exitDy=0;entryX=0.5;entryY=1;entryDx=0;entryDy=0;" edge="1" parent="1" source="OS-VpMHr_oTkPdKjHbIb-50" target="OS-VpMHr_oTkPdKjHbIb-49">
          <mxGeometry width="50" height="50" relative="1" as="geometry">
            <mxPoint x="610" y="1620" as="sourcePoint" />
            <mxPoint x="660" y="1570" as="targetPoint" />
          </mxGeometry>
        </mxCell>
        <mxCell id="OS-VpMHr_oTkPdKjHbIb-53" value="New&lt;br&gt;Account" style="text;html=1;align=center;verticalAlign=middle;resizable=0;points=[];autosize=1;strokeColor=none;fillColor=none;" vertex="1" parent="1">
          <mxGeometry x="594" y="1625" width="70" height="40" as="geometry" />
        </mxCell>
        <mxCell id="OS-VpMHr_oTkPdKjHbIb-55" value="New&lt;br&gt;User" style="text;html=1;align=center;verticalAlign=middle;resizable=0;points=[];autosize=1;strokeColor=none;fillColor=none;" vertex="1" parent="1">
          <mxGeometry x="715" y="1630" width="50" height="40" as="geometry" />
        </mxCell>
      </root>
    </mxGraphModel>
  </diagram>
</mxfile>
